<?xml version="1.0" encoding="UTF-8"?>
<svg width="408px" height="116px" viewBox="0 0 408 116" version="1.1" xmlns="http://www.w3.org/2000/svg" xmlns:xlink="http://www.w3.org/1999/xlink">
    <!-- Generator: Sketch 49.2 (51160) - http://www.bohemiancoding.com/sketch -->
    <title>Enclaves Logo / VIZOR / Light / Enclaves VIZOR</title>
    <desc>Created with Sketch.</desc>
    <defs></defs>
    <g id="Page-1" stroke="none" stroke-width="1" fill="none" fill-rule="evenodd">
        <g id="Exports" transform="translate(-738.000000, -728.000000)">
            <g id="Enclaves-Logo-/-VIZOR-/-Light-/-Enclaves-VIZOR" transform="translate(738.000000, 728.000000)">
                <g id="Group-3">
                    <rect id="Rectangle-2" fill="#E3E7EC" transform="translate(38.982756, 8.485281) rotate(45.000000) translate(-38.982756, -8.485281) " x="32.9827561" y="2.48528137" width="12" height="12"></rect>
                    <rect id="Rectangle-2-Copy-3" fill="#E3E7EC" transform="translate(29.083261, 18.384776) rotate(45.000000) translate(-29.083261, -18.384776) " x="23.0832611" y="12.3847763" width="12" height="12"></rect>
                    <rect id="Rectangle-2-Copy-4" fill="#61666A" transform="translate(38.982756, 28.284271) rotate(45.000000) translate(-38.982756, -28.284271) " x="32.9827561" y="22.2842712" width="12" height="12"></rect>
                    <rect id="Rectangle-2-Copy-2" fill="#61666A" transform="translate(58.781746, 28.284271) rotate(45.000000) translate(-58.781746, -28.284271) " x="52.7817459" y="22.2842712" width="12" height="12"></rect>
                    <rect id="Rectangle-2-Copy-5" fill="#E3E7EC" transform="translate(48.882251, 38.183766) rotate(45.000000) translate(-48.882251, -38.183766) " x="42.882251" y="32.1837662" width="12" height="12"></rect>
                    <rect id="Rectangle-2-Copy-8" fill="#C7CFD9" transform="translate(19.183766, 28.284271) rotate(45.000000) translate(-19.183766, -28.284271) " x="13.1837662" y="22.2842712" width="12" height="12"></rect>
                    <rect id="Rectangle-2-Copy-7" fill="#61666A" transform="translate(29.083261, 38.183766) rotate(45.000000) translate(-29.083261, -38.183766) " x="23.0832611" y="32.1837662" width="12" height="12"></rect>
                    <rect id="Rectangle-2-Copy-11" fill="#11C1F4" transform="translate(9.284271, 38.183766) rotate(45.000000) translate(-9.284271, -38.183766) " x="3.28427125" y="32.1837662" width="12" height="12"></rect>
                    <rect id="Rectangle-2-Copy-10" fill="#C7CFD9" transform="translate(19.183766, 48.083261) rotate(45.000000) translate(-19.183766, -48.083261) " x="13.1837662" y="42.0832611" width="12" height="12"></rect>
                    <rect id="Rectangle-2-Copy-16" fill="#61666A" transform="translate(9.284271, 57.982756) rotate(45.000000) translate(-9.284271, -57.982756) " x="3.28427125" y="51.9827561" width="12" height="12"></rect>
                    <rect id="Rectangle-2-Copy-9" fill="#11C1F4" transform="translate(29.083261, 57.982756) rotate(45.000000) translate(-29.083261, -57.982756) " x="23.0832611" y="51.9827561" width="12" height="12"></rect>
                    <rect id="Rectangle-2-Copy-17" fill="#C7CFD9" transform="translate(19.183766, 67.882251) rotate(45.000000) translate(-19.183766, -67.882251) " x="13.1837662" y="61.882251" width="12" height="12"></rect>
                    <rect id="Rectangle-2-Copy-12" fill="#61666A" transform="translate(38.982756, 67.882251) rotate(45.000000) translate(-38.982756, -67.882251) " x="32.9827561" y="61.882251" width="12" height="12"></rect>
                    <rect id="Rectangle-2-Copy-18" fill="#61666A" transform="translate(29.083261, 77.781746) rotate(45.000000) translate(-29.083261, -77.781746) " x="23.0832611" y="71.7817459" width="12" height="12"></rect>
                    <rect id="Rectangle-2-Copy-13" fill="#E3E7EC" transform="translate(48.882251, 77.781746) rotate(45.000000) translate(-48.882251, -77.781746) " x="42.882251" y="71.7817459" width="12" height="12"></rect>
                    <rect id="Rectangle-2-Copy-20" fill="#61666A" transform="translate(48.882251, 97.580736) rotate(45.000000) translate(-48.882251, -97.580736) " x="42.882251" y="91.5807358" width="12" height="12"></rect>
                    <rect id="Rectangle-2-Copy-24" fill="#E3E7EC" transform="translate(9.284271, 77.781746) rotate(45.000000) translate(-9.284271, -77.781746) " x="3.28427125" y="71.7817459" width="12" height="12"></rect>
                    <rect id="Rectangle-2-Copy-23" fill="#C7CFD9" transform="translate(19.183766, 87.681241) rotate(45.000000) translate(-19.183766, -87.681241) " x="13.1837662" y="81.6812409" width="12" height="12"></rect>
                    <rect id="Rectangle-2-Copy-22" fill="#E3E7EC" transform="translate(29.083261, 97.580736) rotate(45.000000) translate(-29.083261, -97.580736) " x="23.0832611" y="91.5807358" width="12" height="12"></rect>
                    <rect id="Rectangle-2-Copy-21" fill="#11C1F4" transform="translate(38.982756, 107.480231) rotate(45.000000) translate(-38.982756, -107.480231) " x="32.9827561" y="101.480231" width="12" height="12"></rect>
                </g>
                <path d="M157.527998,23.4850455 C163.560268,23.4850455 168.03972,24.8487076 170.966488,27.5760728 C173.893256,30.303438 175.356618,34.1464858 175.356618,39.1053316 L175.356618,59.1885566 L168.184955,59.1885566 L168.184955,39.1053316 C168.184955,36.2652654 167.347152,34.1014379 165.671521,32.6137841 C163.995891,31.1261304 161.28141,30.3823147 157.527998,30.3823147 L145.932692,30.3823147 C145.351807,30.3823147 145.061369,30.7204127 145.061369,31.396619 L145.061369,59.1885566 L137.956731,59.1885566 L137.956731,29.029909 C137.956731,26.9111294 138.336535,25.4573078 139.096154,24.6684005 C139.855773,23.8794932 141.129233,23.4850455 142.916572,23.4850455 L157.527998,23.4850455 Z M217.247172,23.4850455 L217.247172,30.3823147 L199.686652,30.3823147 C196.603491,30.3823147 194.35818,31.2388298 192.95065,32.9518856 C191.543121,34.6649414 190.839367,37.4598853 190.839367,41.336801 C190.839367,45.2137168 191.543121,47.9973908 192.95065,49.6879064 C194.35818,51.378422 196.603491,52.2236671 199.686652,52.2236671 L217.247172,52.2236671 L217.247172,59.1885566 L199.016403,59.1885566 C194.279954,59.1885566 190.537768,57.723465 187.789734,54.793238 C185.0417,51.8630109 183.667704,47.3775768 183.667704,41.336801 C183.667704,35.2960253 185.0417,30.8105912 187.789734,27.8803641 C190.537768,24.9501371 194.279954,23.4850455 199.016403,23.4850455 L217.247172,23.4850455 Z M232.796946,8 L232.796946,59.1885566 L225.692308,59.1885566 L225.692308,8 L232.796946,8 Z M265.63914,23.4850455 C267.828631,23.4850455 269.705309,23.7780638 271.269231,24.3641092 C272.833153,24.9501546 274.117783,25.7728599 275.123162,26.8322497 C276.12854,27.8916395 276.854636,29.1426022 277.301471,30.5851756 C277.748305,32.0277489 277.971719,33.5829999 277.971719,35.2509753 L277.971719,52.0208062 C277.971719,53.3281383 277.871183,54.4325919 277.670107,55.3342003 C277.469032,56.2358086 277.100399,56.9683544 276.564197,57.5318596 C276.027995,58.0953648 275.279558,58.5123524 274.318863,58.7828349 C273.358168,59.0533173 272.140562,59.1885566 270.666007,59.1885566 L254.11086,59.1885566 C249.910612,59.1885566 246.883352,58.2193422 245.028988,56.2808843 C243.174623,54.3424264 242.247455,51.6827217 242.247455,48.3016905 C242.247455,46.6787955 242.459698,45.2362438 242.884191,43.9739922 C243.308684,42.7117405 243.990097,41.6410967 244.92845,40.7620286 C245.866803,39.8829605 247.095581,39.2067644 248.614819,38.73342 C250.134057,38.2600757 251.988394,38.023407 254.177885,38.023407 L271.001131,38.023407 L271.001131,35.3185956 C271.001131,33.9211027 270.587815,32.7490294 269.761171,31.8023407 C268.934526,30.855652 267.538189,30.3823147 265.572115,30.3823147 L244.392251,30.3823147 L244.392251,23.4850455 L265.63914,23.4850455 Z M269.05741,52.2236671 C270.35323,52.2236671 271.001131,51.6150906 271.001131,50.3979194 L271.001131,43.7035111 L254.311934,43.7035111 C252.435228,43.7035111 251.117085,44.0754189 250.357466,44.8192458 C249.597847,45.5630726 249.218043,46.5886367 249.218043,47.8959688 C249.218043,49.2033009 249.597847,50.2514048 250.357466,51.0403121 C251.117085,51.8292194 252.390545,52.2236671 254.177885,52.2236671 L269.05741,52.2236671 Z M291.711821,23.4850455 L303.508201,52.1560468 C303.776302,52.8773335 304.357179,53.2379714 305.250848,53.2379714 C306.189202,53.2379714 306.814761,52.8773335 307.127545,52.1560468 L319.3931,23.4850455 L327.033937,23.4850455 L313.36086,55.3342003 C312.601241,57.0472561 311.562365,58.2531391 310.244202,58.9518856 C308.92604,59.650632 307.261605,60 305.250848,60 C303.195408,60 301.508632,59.6393621 300.190469,58.9180754 C298.872307,58.1967888 297.878114,57.0021757 297.207862,55.3342003 L284.205034,23.4850455 L291.711821,23.4850455 Z M356.457862,23.4850455 C360.658109,23.4850455 363.69654,24.44299 365.573247,26.3589077 C367.449953,28.2748254 368.388292,30.9683398 368.388292,34.4395319 C368.388292,37.7304022 367.472294,40.2661376 365.640271,42.046814 C363.808249,43.8274905 360.725135,44.7178153 356.390837,44.7178153 L339.56759,44.7178153 L339.56759,47.2873862 C339.56759,48.7299595 339.980907,49.9133027 340.807551,50.8374512 C341.634195,51.7615998 343.030533,52.2236671 344.996606,52.2236671 L366.645645,52.2236671 L366.645645,59.1885566 L344.996606,59.1885566 C342.762432,59.1885566 340.874583,58.8955383 339.333003,58.3094928 C337.791423,57.7234474 336.517963,56.9007422 335.512585,55.8413524 C334.507207,54.7819626 333.781111,53.5422698 333.334276,52.1222367 C332.887441,50.7022036 332.664027,49.1356826 332.664027,47.4226268 L332.664027,35.2509753 C332.664027,33.5829999 332.887441,32.0277489 333.334276,30.5851756 C333.781111,29.1426022 334.507207,27.8916395 335.512585,26.8322497 C336.517963,25.7728599 337.791423,24.9501546 339.333003,24.3641092 C340.874583,23.7780638 342.762432,23.4850455 344.996606,23.4850455 L356.457862,23.4850455 Z M339.56759,39.1053316 L356.189762,39.1053316 C358.111152,39.1053316 359.462807,38.7221538 360.244768,37.9557867 C361.026729,37.1894197 361.417704,36.1525856 361.417704,34.8452536 C361.417704,33.4928411 361.015558,32.4109273 360.211256,31.5994798 C359.406953,30.7880324 358.133493,30.3823147 356.390837,30.3823147 L344.996606,30.3823147 C343.030533,30.3823147 341.634195,30.855652 340.807551,31.8023407 C339.980907,32.7490294 339.56759,33.9211027 339.56759,35.3185956 L339.56759,39.1053316 Z M100.342146,31.0134374 L121.692025,31.0134374 L121.692025,38.3389681 L99.95735,38.3389681 C100.176978,42.5734495 101.143865,45.7027412 102.858032,47.7269181 C104.824105,50.0485595 108.018926,51.2093628 112.44259,51.2093628 L129.936086,51.2093628 L129.936086,59.1885566 L112.44259,59.1885566 C105.829435,59.1885566 100.769107,57.3064774 97.2614536,53.5422627 C93.7538003,49.7780479 92,44.0641909 92,36.4005202 C92,28.691769 93.7538003,22.9553721 97.2614536,19.1911573 C100.769107,15.4269426 105.829435,13.5448635 112.44259,13.5448635 L129.936086,13.5448635 L129.936086,21.5240572 L112.44259,21.5240572 C108.063609,21.5240572 104.879959,22.6848605 102.891544,25.006502 C101.660938,26.4433383 100.811141,28.4456411 100.342146,31.0134374 Z M406.592477,23.4850455 L406.592477,30.3823147 L387.02121,30.3823147 C385.367922,30.3823147 384.183827,30.7204127 383.468891,31.396619 C382.753956,32.0728252 382.396493,33.0871194 382.396493,34.4395319 C382.396493,35.7017835 382.742785,36.659728 383.435379,37.313394 C384.127973,37.9670601 385.457287,38.2938882 387.42336,38.2938882 L395.734446,38.2938882 C398.192037,38.2938882 400.213934,38.5643666 401.800198,39.1053316 C403.386462,39.6462966 404.63758,40.3675724 405.553592,41.2691808 C406.469603,42.1707891 407.106333,43.230163 407.463801,44.4473342 C407.821269,45.6645054 408,46.9718179 408,48.3693108 C408,49.9471254 407.787757,51.400947 407.363264,52.7308192 C406.938771,54.0606915 406.257358,55.198955 405.319005,56.1456437 C404.380651,57.0923324 403.174216,57.8361481 401.699661,58.3771131 C400.225106,58.9180781 398.460135,59.1885566 396.404695,59.1885566 L375.828054,59.1885566 L375.828054,52.2236671 L396.404695,52.2236671 C398.057983,52.2236671 399.242078,51.9193789 399.957014,51.3107932 C400.671949,50.7022076 401.029412,49.6991834 401.029412,48.3016905 C401.029412,46.8591172 400.638437,45.8335531 399.856476,45.2249675 C399.074515,44.6163819 397.789885,44.3120936 396.002545,44.3120936 L387.624434,44.3120936 C385.166843,44.3120936 383.156116,44.0303453 381.592195,43.4668401 C380.028273,42.9033349 378.788325,42.1369793 377.872313,41.1677503 C376.956302,40.1985214 376.319572,39.0827978 375.962104,37.8205462 C375.604636,36.5582945 375.425905,35.2509821 375.425905,33.8985696 C375.425905,30.69786 376.319561,28.1621247 378.1069,26.2912874 C379.89424,24.4204501 382.843305,23.4850455 386.954186,23.4850455 L406.592477,23.4850455 Z" id="Combined-Shape" fill="#2A2E34"></path>
                <path d="M99.7989157,70.424581 L104.135042,100.72905 L104.239527,100.72905 L108.575653,70.424581 L113.852144,70.424581 L108.209956,107.575419 L99.6421882,107.575419 L94,70.424581 L99.7989157,70.424581 Z M120.434697,107.575419 L120.434697,70.424581 L126.18137,70.424581 L126.18137,107.575419 L120.434697,107.575419 Z M133.913258,70.424581 L150.212913,70.424581 L150.212913,75.6256983 L139.294234,102.268156 L150.212913,102.268156 L150.212913,107.575419 L133.390833,107.575419 L133.390833,102.374302 L144.309512,75.7318436 L133.913258,75.7318436 L133.913258,70.424581 Z M162.803351,78.9692737 L162.803351,99.0307263 C162.803351,101.684358 163.952686,102.692737 165.781173,102.692737 C167.60966,102.692737 168.758995,101.684358 168.758995,99.0307263 L168.758995,78.9692737 C168.758995,76.3156425 167.60966,75.3072626 165.781173,75.3072626 C163.952686,75.3072626 162.803351,76.3156425 162.803351,78.9692737 Z M157.056678,98.6592179 L157.056678,79.3407821 C157.056678,73.396648 160.138985,70 165.781173,70 C171.423361,70 174.505668,73.396648 174.505668,79.3407821 L174.505668,98.6592179 C174.505668,104.603352 171.423361,108 165.781173,108 C160.138985,108 157.056678,104.603352 157.056678,98.6592179 Z M200,107.575419 L194.148842,107.575419 C193.835387,106.620112 193.626417,106.036313 193.626417,103.011173 L193.626417,97.1731844 C193.626417,93.7234637 192.477082,92.4497207 189.864958,92.4497207 L187.879744,92.4497207 L187.879744,107.575419 L182.133071,107.575419 L182.133071,70.424581 L190.805323,70.424581 C196.760966,70.424581 199.320848,73.2374302 199.320848,78.9692737 L199.320848,81.8882682 C199.320848,85.7094972 198.119271,88.150838 195.559389,89.3715084 L195.559389,89.4776536 C198.432725,90.698324 199.37309,93.4581006 199.37309,97.3324022 L199.37309,103.064246 C199.37309,104.868715 199.425333,106.195531 200,107.575419 Z M190.648595,75.7318436 L187.879744,75.7318436 L187.879744,87.1424581 L190.126171,87.1424581 C192.268112,87.1424581 193.574174,86.1871508 193.574174,83.2150838 L193.574174,79.5530726 C193.574174,76.8994413 192.686052,75.7318436 190.648595,75.7318436 Z" id="VIZOR" fill="#11C1F4"></path>
            </g>
        </g>
    </g>
</svg>