<?xml version="1.0" encoding="UTF-8"?>
<svg width="316px" height="52px" viewBox="0 0 316 52" version="1.1" xmlns="http://www.w3.org/2000/svg" xmlns:xlink="http://www.w3.org/1999/xlink">
    <!-- Generator: Sketch 49.2 (51160) - http://www.bohemiancoding.com/sketch -->
    <title>Enclaves Logo / Basic / Light / Enclaves - logo type</title>
    <desc>Created with Sketch.</desc>
    <defs></defs>
    <g id="Page-1" stroke="none" stroke-width="1" fill="none" fill-rule="evenodd">
        <g id="Exports" transform="translate(-940.000000, -172.000000)" fill="#2A2E34">
            <path d="M1005.528,187.485046 C1011.56027,187.485046 1016.03972,188.848708 1018.96649,191.576073 C1021.89326,194.303438 1023.35662,198.146486 1023.35662,203.105332 L1023.35662,223.188557 L1016.18495,223.188557 L1016.18495,203.105332 C1016.18495,200.265265 1015.34715,198.101438 1013.67152,196.613784 C1011.99589,195.12613 1009.28141,194.382315 1005.528,194.382315 L993.932692,194.382315 C993.351807,194.382315 993.061369,194.720413 993.061369,195.396619 L993.061369,223.188557 L985.956731,223.188557 L985.956731,193.029909 C985.956731,190.911129 986.336535,189.457308 987.096154,188.668401 C987.855773,187.879493 989.129233,187.485046 990.916572,187.485046 L1005.528,187.485046 Z M1065.24717,187.485046 L1065.24717,194.382315 L1047.68665,194.382315 C1044.60349,194.382315 1042.35818,195.23883 1040.95065,196.951886 C1039.54312,198.664941 1038.83937,201.459885 1038.83937,205.336801 C1038.83937,209.213717 1039.54312,211.997391 1040.95065,213.687906 C1042.35818,215.378422 1044.60349,216.223667 1047.68665,216.223667 L1065.24717,216.223667 L1065.24717,223.188557 L1047.0164,223.188557 C1042.27995,223.188557 1038.53777,221.723465 1035.78973,218.793238 C1033.0417,215.863011 1031.6677,211.377577 1031.6677,205.336801 C1031.6677,199.296025 1033.0417,194.810591 1035.78973,191.880364 C1038.53777,188.950137 1042.27995,187.485046 1047.0164,187.485046 L1065.24717,187.485046 Z M1080.79695,172 L1080.79695,223.188557 L1073.69231,223.188557 L1073.69231,172 L1080.79695,172 Z M1113.63914,187.485046 C1115.82863,187.485046 1117.70531,187.778064 1119.26923,188.364109 C1120.83315,188.950155 1122.11778,189.77286 1123.12316,190.83225 C1124.12854,191.891639 1124.85464,193.142602 1125.30147,194.585176 C1125.74831,196.027749 1125.97172,197.583 1125.97172,199.250975 L1125.97172,216.020806 C1125.97172,217.328138 1125.87118,218.432592 1125.67011,219.3342 C1125.46903,220.235809 1125.1004,220.968354 1124.5642,221.53186 C1124.028,222.095365 1123.27956,222.512352 1122.31886,222.782835 C1121.35817,223.053317 1120.14056,223.188557 1118.66601,223.188557 L1102.11086,223.188557 C1097.91061,223.188557 1094.88335,222.219342 1093.02899,220.280884 C1091.17462,218.342426 1090.24745,215.682722 1090.24745,212.301691 C1090.24745,210.678796 1090.4597,209.236244 1090.88419,207.973992 C1091.30868,206.711741 1091.9901,205.641097 1092.92845,204.762029 C1093.8668,203.88296 1095.09558,203.206764 1096.61482,202.73342 C1098.13406,202.260076 1099.98839,202.023407 1102.17788,202.023407 L1119.00113,202.023407 L1119.00113,199.318596 C1119.00113,197.921103 1118.58782,196.749029 1117.76117,195.802341 C1116.93453,194.855652 1115.53819,194.382315 1113.57212,194.382315 L1092.39225,194.382315 L1092.39225,187.485046 L1113.63914,187.485046 Z M1117.05741,216.223667 C1118.35323,216.223667 1119.00113,215.615091 1119.00113,214.397919 L1119.00113,207.703511 L1102.31193,207.703511 C1100.43523,207.703511 1099.11709,208.075419 1098.35747,208.819246 C1097.59785,209.563073 1097.21804,210.588637 1097.21804,211.895969 C1097.21804,213.203301 1097.59785,214.251405 1098.35747,215.040312 C1099.11709,215.829219 1100.39055,216.223667 1102.17788,216.223667 L1117.05741,216.223667 Z M1139.71182,187.485046 L1151.5082,216.156047 C1151.7763,216.877333 1152.35718,217.237971 1153.25085,217.237971 C1154.1892,217.237971 1154.81476,216.877333 1155.12755,216.156047 L1167.3931,187.485046 L1175.03394,187.485046 L1161.36086,219.3342 C1160.60124,221.047256 1159.56237,222.253139 1158.2442,222.951886 C1156.92604,223.650632 1155.26161,224 1153.25085,224 C1151.19541,224 1149.50863,223.639362 1148.19047,222.918075 C1146.87231,222.196789 1145.87811,221.002176 1145.20786,219.3342 L1132.20503,187.485046 L1139.71182,187.485046 Z M1204.45786,187.485046 C1208.65811,187.485046 1211.69654,188.44299 1213.57325,190.358908 C1215.44995,192.274825 1216.38829,194.96834 1216.38829,198.439532 C1216.38829,201.730402 1215.47229,204.266138 1213.64027,206.046814 C1211.80825,207.82749 1208.72513,208.717815 1204.39084,208.717815 L1187.56759,208.717815 L1187.56759,211.287386 C1187.56759,212.72996 1187.98091,213.913303 1188.80755,214.837451 C1189.6342,215.7616 1191.03053,216.223667 1192.99661,216.223667 L1214.64564,216.223667 L1214.64564,223.188557 L1192.99661,223.188557 C1190.76243,223.188557 1188.87458,222.895538 1187.333,222.309493 C1185.79142,221.723447 1184.51796,220.900742 1183.51258,219.841352 C1182.50721,218.781963 1181.78111,217.54227 1181.33428,216.122237 C1180.88744,214.702204 1180.66403,213.135683 1180.66403,211.422627 L1180.66403,199.250975 C1180.66403,197.583 1180.88744,196.027749 1181.33428,194.585176 C1181.78111,193.142602 1182.50721,191.891639 1183.51258,190.83225 C1184.51796,189.77286 1185.79142,188.950155 1187.333,188.364109 C1188.87458,187.778064 1190.76243,187.485046 1192.99661,187.485046 L1204.45786,187.485046 Z M1187.56759,203.105332 L1204.18976,203.105332 C1206.11115,203.105332 1207.46281,202.722154 1208.24477,201.955787 C1209.02673,201.18942 1209.4177,200.152586 1209.4177,198.845254 C1209.4177,197.492841 1209.01556,196.410927 1208.21126,195.59948 C1207.40695,194.788032 1206.13349,194.382315 1204.39084,194.382315 L1192.99661,194.382315 C1191.03053,194.382315 1189.6342,194.855652 1188.80755,195.802341 C1187.98091,196.749029 1187.56759,197.921103 1187.56759,199.318596 L1187.56759,203.105332 Z M948.342146,195.013437 L969.692025,195.013437 L969.692025,202.338968 L947.95735,202.338968 C948.176978,206.57345 949.143865,209.702741 950.858032,211.726918 C952.824105,214.04856 956.018926,215.209363 960.44259,215.209363 L977.936086,215.209363 L977.936086,223.188557 L960.44259,223.188557 C953.829435,223.188557 948.769107,221.306477 945.261454,217.542263 C941.7538,213.778048 940,208.064191 940,200.40052 C940,192.691769 941.7538,186.955372 945.261454,183.191157 C948.769107,179.426943 953.829435,177.544863 960.44259,177.544863 L977.936086,177.544863 L977.936086,185.524057 L960.44259,185.524057 C956.063609,185.524057 952.879959,186.684861 950.891544,189.006502 C949.660938,190.443338 948.811141,192.445641 948.342146,195.013437 Z M1254.59248,187.485046 L1254.59248,194.382315 L1235.02121,194.382315 C1233.36792,194.382315 1232.18383,194.720413 1231.46889,195.396619 C1230.75396,196.072825 1230.39649,197.087119 1230.39649,198.439532 C1230.39649,199.701784 1230.74278,200.659728 1231.43538,201.313394 C1232.12797,201.96706 1233.45729,202.293888 1235.42336,202.293888 L1243.73445,202.293888 C1246.19204,202.293888 1248.21393,202.564367 1249.8002,203.105332 C1251.38646,203.646297 1252.63758,204.367572 1253.55359,205.269181 C1254.4696,206.170789 1255.10633,207.230163 1255.4638,208.447334 C1255.82127,209.664505 1256,210.971818 1256,212.369311 C1256,213.947125 1255.78776,215.400947 1255.36326,216.730819 C1254.93877,218.060692 1254.25736,219.198955 1253.319,220.145644 C1252.38065,221.092332 1251.17422,221.836148 1249.69966,222.377113 C1248.22511,222.918078 1246.46013,223.188557 1244.40469,223.188557 L1223.82805,223.188557 L1223.82805,216.223667 L1244.40469,216.223667 C1246.05798,216.223667 1247.24208,215.919379 1247.95701,215.310793 C1248.67195,214.702208 1249.02941,213.699183 1249.02941,212.301691 C1249.02941,210.859117 1248.63844,209.833553 1247.85648,209.224967 C1247.07452,208.616382 1245.78988,208.312094 1244.00255,208.312094 L1235.62443,208.312094 C1233.16684,208.312094 1231.15612,208.030345 1229.59219,207.46684 C1228.02827,206.903335 1226.78832,206.136979 1225.87231,205.16775 C1224.9563,204.198521 1224.31957,203.082798 1223.9621,201.820546 C1223.60464,200.558295 1223.4259,199.250982 1223.4259,197.89857 C1223.4259,194.69786 1224.31956,192.162125 1226.1069,190.291287 C1227.89424,188.42045 1230.84331,187.485046 1234.95419,187.485046 L1254.59248,187.485046 Z" id="Enclaves-Logo-/-Basic-/-Light-/-Enclaves---logo-type"></path>
        </g>
    </g>
</svg>