<?xml version="1.0" encoding="UTF-8"?>
<svg width="35px" height="40px" viewBox="0 0 35 40" version="1.1" xmlns="http://www.w3.org/2000/svg" xmlns:xlink="http://www.w3.org/1999/xlink">
    <!-- Generator: Sketch 49.2 (51160) - http://www.bohemiancoding.com/sketch -->
    <title>Enclaves Logo / Basic / Dark / Enclaves - logo mark responsive</title>
    <desc>Created with Sketch.</desc>
    <defs></defs>
    <g id="Page-1" stroke="none" stroke-width="1" fill="none" fill-rule="evenodd">
        <g id="Exports" transform="translate(-1741.000000, -178.000000)">
            <g id="Enclaves-Logo-/-Basic-/-Dark-/-Enclaves---logo-mark-responsive" transform="translate(1741.000000, 178.000000)">
                <rect id="Rectangle-2" fill="#E3E7EC" transform="translate(19.987500, 4.770008) rotate(45.000000) translate(-19.987500, -4.770008) " x="16.9125" y="1.69308471" width="6.15" height="6.15384615"></rect>
                <rect id="Rectangle-2-Copy-3" fill="#E3E7EC" transform="translate(14.914009, 9.846672) rotate(45.000000) translate(-14.914009, -9.846672) " x="11.8390088" y="6.76974878" width="6.15" height="6.15384615"></rect>
                <rect id="Rectangle-2-Copy-4" fill="#61666A" transform="translate(19.987500, 14.923336) rotate(45.000000) translate(-19.987500, -14.923336) " x="16.9125" y="11.8464129" width="6.15" height="6.15384615"></rect>
                <rect id="Rectangle-2-Copy-8" fill="#61666A" transform="translate(9.840518, 14.923336) rotate(45.000000) translate(-9.840518, -14.923336) " x="6.76551769" y="11.8464129" width="6.15" height="6.15384615"></rect>
                <rect id="Rectangle-2-Copy-7" fill="#E3E7EC" transform="translate(14.914009, 20.000000) rotate(45.000000) translate(-14.914009, -20.000000) " x="11.8390088" y="16.9230769" width="6.15" height="6.15384615"></rect>
                <rect id="Rectangle-2-Copy-11" fill="#11C1F4" transform="translate(4.767027, 20.000000) rotate(45.000000) translate(-4.767027, -20.000000) " x="1.69202653" y="16.9230769" width="6.15" height="6.15384615"></rect>
                <rect id="Rectangle-2-Copy-9" fill="#11C1F4" transform="translate(14.914009, 30.153328) rotate(45.000000) translate(-14.914009, -30.153328) " x="11.8390088" y="27.0764051" width="6.15" height="6.15384615"></rect>
                <rect id="Rectangle-2-Copy-17" fill="#C7CFD9" transform="translate(19.987500, 25.076664) rotate(45.000000) translate(-19.987500, -25.076664) " x="16.9125" y="21.999741" width="6.15" height="6.15384615"></rect>
                <rect id="Rectangle-2-Copy-12" fill="#61666A" transform="translate(19.987500, 35.229992) rotate(45.000000) translate(-19.987500, -35.229992) " x="16.9125" y="32.1530691" width="6.15" height="6.15384615"></rect>
                <rect id="Rectangle-2-Copy-14" fill="#61666A" transform="translate(30.134482, 25.076664) rotate(45.000000) translate(-30.134482, -25.076664) " x="27.0594823" y="21.999741" width="6.15" height="6.15384615"></rect>
                <rect id="Rectangle-2-Copy-13" fill="#E3E7EC" transform="translate(25.060991, 30.153328) rotate(45.000000) translate(-25.060991, -30.153328) " x="21.9859912" y="27.0764051" width="6.15" height="6.15384615"></rect>
            </g>
        </g>
    </g>
</svg>