<?xml version="1.0" encoding="UTF-8"?>
<svg width="316px" height="52px" viewBox="0 0 316 52" version="1.1" xmlns="http://www.w3.org/2000/svg" xmlns:xlink="http://www.w3.org/1999/xlink">
    <!-- Generator: Sketch 49.2 (51160) - http://www.bohemiancoding.com/sketch -->
    <title>Enclaves Logo / Basic / Dark / Enclaves - logo type</title>
    <desc>Created with Sketch.</desc>
    <defs></defs>
    <g id="Page-1" stroke="none" stroke-width="1" fill="none" fill-rule="evenodd">
        <g id="Exports" transform="translate(-785.000000, -178.000000)" fill="#FFFFFF">
            <path d="M850.527998,193.485046 C856.560268,193.485046 861.03972,194.848708 863.966488,197.576073 C866.893256,200.303438 868.356618,204.146486 868.356618,209.105332 L868.356618,229.188557 L861.184955,229.188557 L861.184955,209.105332 C861.184955,206.265265 860.347152,204.101438 858.671521,202.613784 C856.995891,201.12613 854.28141,200.382315 850.527998,200.382315 L838.932692,200.382315 C838.351807,200.382315 838.061369,200.720413 838.061369,201.396619 L838.061369,229.188557 L830.956731,229.188557 L830.956731,199.029909 C830.956731,196.911129 831.336535,195.457308 832.096154,194.668401 C832.855773,193.879493 834.129233,193.485046 835.916572,193.485046 L850.527998,193.485046 Z M910.247172,193.485046 L910.247172,200.382315 L892.686652,200.382315 C889.603491,200.382315 887.35818,201.23883 885.95065,202.951886 C884.543121,204.664941 883.839367,207.459885 883.839367,211.336801 C883.839367,215.213717 884.543121,217.997391 885.95065,219.687906 C887.35818,221.378422 889.603491,222.223667 892.686652,222.223667 L910.247172,222.223667 L910.247172,229.188557 L892.016403,229.188557 C887.279954,229.188557 883.537768,227.723465 880.789734,224.793238 C878.0417,221.863011 876.667704,217.377577 876.667704,211.336801 C876.667704,205.296025 878.0417,200.810591 880.789734,197.880364 C883.537768,194.950137 887.279954,193.485046 892.016403,193.485046 L910.247172,193.485046 Z M925.796946,178 L925.796946,229.188557 L918.692308,229.188557 L918.692308,178 L925.796946,178 Z M958.63914,193.485046 C960.828631,193.485046 962.705309,193.778064 964.269231,194.364109 C965.833153,194.950155 967.117783,195.77286 968.123162,196.83225 C969.12854,197.891639 969.854636,199.142602 970.301471,200.585176 C970.748305,202.027749 970.971719,203.583 970.971719,205.250975 L970.971719,222.020806 C970.971719,223.328138 970.871183,224.432592 970.670107,225.3342 C970.469032,226.235809 970.100399,226.968354 969.564197,227.53186 C969.027995,228.095365 968.279558,228.512352 967.318863,228.782835 C966.358168,229.053317 965.140562,229.188557 963.666007,229.188557 L947.11086,229.188557 C942.910612,229.188557 939.883352,228.219342 938.028988,226.280884 C936.174623,224.342426 935.247455,221.682722 935.247455,218.301691 C935.247455,216.678796 935.459698,215.236244 935.884191,213.973992 C936.308684,212.711741 936.990097,211.641097 937.92845,210.762029 C938.866803,209.88296 940.095581,209.206764 941.614819,208.73342 C943.134057,208.260076 944.988394,208.023407 947.177885,208.023407 L964.001131,208.023407 L964.001131,205.318596 C964.001131,203.921103 963.587815,202.749029 962.761171,201.802341 C961.934526,200.855652 960.538189,200.382315 958.572115,200.382315 L937.392251,200.382315 L937.392251,193.485046 L958.63914,193.485046 Z M962.05741,222.223667 C963.35323,222.223667 964.001131,221.615091 964.001131,220.397919 L964.001131,213.703511 L947.311934,213.703511 C945.435228,213.703511 944.117085,214.075419 943.357466,214.819246 C942.597847,215.563073 942.218043,216.588637 942.218043,217.895969 C942.218043,219.203301 942.597847,220.251405 943.357466,221.040312 C944.117085,221.829219 945.390545,222.223667 947.177885,222.223667 L962.05741,222.223667 Z M984.711821,193.485046 L996.508201,222.156047 C996.776302,222.877333 997.357179,223.237971 998.250848,223.237971 C999.189202,223.237971 999.814761,222.877333 1000.12755,222.156047 L1012.3931,193.485046 L1020.03394,193.485046 L1006.36086,225.3342 C1005.60124,227.047256 1004.56237,228.253139 1003.2442,228.951886 C1001.92604,229.650632 1000.26161,230 998.250848,230 C996.195408,230 994.508632,229.639362 993.190469,228.918075 C991.872307,228.196789 990.878114,227.002176 990.207862,225.3342 L977.205034,193.485046 L984.711821,193.485046 Z M1049.45786,193.485046 C1053.65811,193.485046 1056.69654,194.44299 1058.57325,196.358908 C1060.44995,198.274825 1061.38829,200.96834 1061.38829,204.439532 C1061.38829,207.730402 1060.47229,210.266138 1058.64027,212.046814 C1056.80825,213.82749 1053.72513,214.717815 1049.39084,214.717815 L1032.56759,214.717815 L1032.56759,217.287386 C1032.56759,218.72996 1032.98091,219.913303 1033.80755,220.837451 C1034.6342,221.7616 1036.03053,222.223667 1037.99661,222.223667 L1059.64564,222.223667 L1059.64564,229.188557 L1037.99661,229.188557 C1035.76243,229.188557 1033.87458,228.895538 1032.333,228.309493 C1030.79142,227.723447 1029.51796,226.900742 1028.51258,225.841352 C1027.50721,224.781963 1026.78111,223.54227 1026.33428,222.122237 C1025.88744,220.702204 1025.66403,219.135683 1025.66403,217.422627 L1025.66403,205.250975 C1025.66403,203.583 1025.88744,202.027749 1026.33428,200.585176 C1026.78111,199.142602 1027.50721,197.891639 1028.51258,196.83225 C1029.51796,195.77286 1030.79142,194.950155 1032.333,194.364109 C1033.87458,193.778064 1035.76243,193.485046 1037.99661,193.485046 L1049.45786,193.485046 Z M1032.56759,209.105332 L1049.18976,209.105332 C1051.11115,209.105332 1052.46281,208.722154 1053.24477,207.955787 C1054.02673,207.18942 1054.4177,206.152586 1054.4177,204.845254 C1054.4177,203.492841 1054.01556,202.410927 1053.21126,201.59948 C1052.40695,200.788032 1051.13349,200.382315 1049.39084,200.382315 L1037.99661,200.382315 C1036.03053,200.382315 1034.6342,200.855652 1033.80755,201.802341 C1032.98091,202.749029 1032.56759,203.921103 1032.56759,205.318596 L1032.56759,209.105332 Z M793.342146,201.013437 L814.692025,201.013437 L814.692025,208.338968 L792.95735,208.338968 C793.176978,212.57345 794.143865,215.702741 795.858032,217.726918 C797.824105,220.04856 801.018926,221.209363 805.44259,221.209363 L822.936086,221.209363 L822.936086,229.188557 L805.44259,229.188557 C798.829435,229.188557 793.769107,227.306477 790.261454,223.542263 C786.7538,219.778048 785,214.064191 785,206.40052 C785,198.691769 786.7538,192.955372 790.261454,189.191157 C793.769107,185.426943 798.829435,183.544863 805.44259,183.544863 L822.936086,183.544863 L822.936086,191.524057 L805.44259,191.524057 C801.063609,191.524057 797.879959,192.684861 795.891544,195.006502 C794.660938,196.443338 793.811141,198.445641 793.342146,201.013437 Z M1099.59248,193.485046 L1099.59248,200.382315 L1080.02121,200.382315 C1078.36792,200.382315 1077.18383,200.720413 1076.46889,201.396619 C1075.75396,202.072825 1075.39649,203.087119 1075.39649,204.439532 C1075.39649,205.701784 1075.74278,206.659728 1076.43538,207.313394 C1077.12797,207.96706 1078.45729,208.293888 1080.42336,208.293888 L1088.73445,208.293888 C1091.19204,208.293888 1093.21393,208.564367 1094.8002,209.105332 C1096.38646,209.646297 1097.63758,210.367572 1098.55359,211.269181 C1099.4696,212.170789 1100.10633,213.230163 1100.4638,214.447334 C1100.82127,215.664505 1101,216.971818 1101,218.369311 C1101,219.947125 1100.78776,221.400947 1100.36326,222.730819 C1099.93877,224.060692 1099.25736,225.198955 1098.319,226.145644 C1097.38065,227.092332 1096.17422,227.836148 1094.69966,228.377113 C1093.22511,228.918078 1091.46013,229.188557 1089.40469,229.188557 L1068.82805,229.188557 L1068.82805,222.223667 L1089.40469,222.223667 C1091.05798,222.223667 1092.24208,221.919379 1092.95701,221.310793 C1093.67195,220.702208 1094.02941,219.699183 1094.02941,218.301691 C1094.02941,216.859117 1093.63844,215.833553 1092.85648,215.224967 C1092.07452,214.616382 1090.78988,214.312094 1089.00255,214.312094 L1080.62443,214.312094 C1078.16684,214.312094 1076.15612,214.030345 1074.59219,213.46684 C1073.02827,212.903335 1071.78832,212.136979 1070.87231,211.16775 C1069.9563,210.198521 1069.31957,209.082798 1068.9621,207.820546 C1068.60464,206.558295 1068.4259,205.250982 1068.4259,203.89857 C1068.4259,200.69786 1069.31956,198.162125 1071.1069,196.291287 C1072.89424,194.42045 1075.84331,193.485046 1079.95419,193.485046 L1099.59248,193.485046 Z" id="Enclaves-Logo-/-Basic-/-Dark-/-Enclaves---logo-type"></path>
        </g>
    </g>
</svg>