<?xml version="1.0" encoding="UTF-8"?>
<svg width="68px" height="116px" viewBox="0 0 68 116" version="1.1" xmlns="http://www.w3.org/2000/svg" xmlns:xlink="http://www.w3.org/1999/xlink">
    <!-- Generator: Sketch 49.2 (51160) - http://www.bohemiancoding.com/sketch -->
    <title>Enclaves Logo / Basic / Dark / Enclaves - logo mark</title>
    <desc>Created with Sketch.</desc>
    <defs></defs>
    <g id="Page-1" stroke="none" stroke-width="1" fill="none" fill-rule="evenodd">
        <g id="Exports" transform="translate(-618.000000, -140.000000)">
            <g id="Enclaves-Logo-/-Basic-/-Dark-/-Enclaves---logo-mark" transform="translate(618.000000, 140.000000)">
                <rect id="Rectangle-2" fill="#E3E7EC" transform="translate(38.982756, 8.485281) rotate(45.000000) translate(-38.982756, -8.485281) " x="32.9827561" y="2.48528137" width="12" height="12"></rect>
                <rect id="Rectangle-2-Copy-3" fill="#E3E7EC" transform="translate(29.083261, 18.384776) rotate(45.000000) translate(-29.083261, -18.384776) " x="23.0832611" y="12.3847763" width="12" height="12"></rect>
                <rect id="Rectangle-2-Copy-4" fill="#61666A" transform="translate(38.982756, 28.284271) rotate(45.000000) translate(-38.982756, -28.284271) " x="32.9827561" y="22.2842712" width="12" height="12"></rect>
                <rect id="Rectangle-2-Copy-2" fill="#61666A" transform="translate(58.781746, 28.284271) rotate(45.000000) translate(-58.781746, -28.284271) " x="52.7817459" y="22.2842712" width="12" height="12"></rect>
                <rect id="Rectangle-2-Copy-5" fill="#E3E7EC" transform="translate(48.882251, 38.183766) rotate(45.000000) translate(-48.882251, -38.183766) " x="42.882251" y="32.1837662" width="12" height="12"></rect>
                <rect id="Rectangle-2-Copy-8" fill="#C7CFD9" transform="translate(19.183766, 28.284271) rotate(45.000000) translate(-19.183766, -28.284271) " x="13.1837662" y="22.2842712" width="12" height="12"></rect>
                <rect id="Rectangle-2-Copy-7" fill="#61666A" transform="translate(29.083261, 38.183766) rotate(45.000000) translate(-29.083261, -38.183766) " x="23.0832611" y="32.1837662" width="12" height="12"></rect>
                <rect id="Rectangle-2-Copy-11" fill="#11C1F4" transform="translate(9.284271, 38.183766) rotate(45.000000) translate(-9.284271, -38.183766) " x="3.28427125" y="32.1837662" width="12" height="12"></rect>
                <rect id="Rectangle-2-Copy-10" fill="#C7CFD9" transform="translate(19.183766, 48.083261) rotate(45.000000) translate(-19.183766, -48.083261) " x="13.1837662" y="42.0832611" width="12" height="12"></rect>
                <rect id="Rectangle-2-Copy-16" fill="#61666A" transform="translate(9.284271, 57.982756) rotate(45.000000) translate(-9.284271, -57.982756) " x="3.28427125" y="51.9827561" width="12" height="12"></rect>
                <rect id="Rectangle-2-Copy-9" fill="#11C1F4" transform="translate(29.083261, 57.982756) rotate(45.000000) translate(-29.083261, -57.982756) " x="23.0832611" y="51.9827561" width="12" height="12"></rect>
                <rect id="Rectangle-2-Copy-17" fill="#C7CFD9" transform="translate(19.183766, 67.882251) rotate(45.000000) translate(-19.183766, -67.882251) " x="13.1837662" y="61.882251" width="12" height="12"></rect>
                <rect id="Rectangle-2-Copy-12" fill="#61666A" transform="translate(38.982756, 67.882251) rotate(45.000000) translate(-38.982756, -67.882251) " x="32.9827561" y="61.882251" width="12" height="12"></rect>
                <rect id="Rectangle-2-Copy-18" fill="#61666A" transform="translate(29.083261, 77.781746) rotate(45.000000) translate(-29.083261, -77.781746) " x="23.0832611" y="71.7817459" width="12" height="12"></rect>
                <rect id="Rectangle-2-Copy-13" fill="#E3E7EC" transform="translate(48.882251, 77.781746) rotate(45.000000) translate(-48.882251, -77.781746) " x="42.882251" y="71.7817459" width="12" height="12"></rect>
                <rect id="Rectangle-2-Copy-20" fill="#61666A" transform="translate(48.882251, 97.580736) rotate(45.000000) translate(-48.882251, -97.580736) " x="42.882251" y="91.5807358" width="12" height="12"></rect>
                <rect id="Rectangle-2-Copy-24" fill="#E3E7EC" transform="translate(9.284271, 77.781746) rotate(45.000000) translate(-9.284271, -77.781746) " x="3.28427125" y="71.7817459" width="12" height="12"></rect>
                <rect id="Rectangle-2-Copy-23" fill="#C7CFD9" transform="translate(19.183766, 87.681241) rotate(45.000000) translate(-19.183766, -87.681241) " x="13.1837662" y="81.6812409" width="12" height="12"></rect>
                <rect id="Rectangle-2-Copy-22" fill="#E3E7EC" transform="translate(29.083261, 97.580736) rotate(45.000000) translate(-29.083261, -97.580736) " x="23.0832611" y="91.5807358" width="12" height="12"></rect>
                <rect id="Rectangle-2-Copy-21" fill="#11C1F4" transform="translate(38.982756, 107.480231) rotate(45.000000) translate(-38.982756, -107.480231) " x="32.9827561" y="101.480231" width="12" height="12"></rect>
            </g>
        </g>
    </g>
</svg>