<?xml version="1.0" encoding="UTF-8"?>
<svg width="598px" height="116px" viewBox="0 0 598 116" version="1.1" xmlns="http://www.w3.org/2000/svg" xmlns:xlink="http://www.w3.org/1999/xlink">
    <!-- Generator: Sketch 49.2 (51160) - http://www.bohemiancoding.com/sketch -->
    <title>Enclaves Logo / Labs / Dark / Enclaves Labs</title>
    <desc>Created with Sketch.</desc>
    <defs></defs>
    <g id="Page-1" stroke="none" stroke-width="1" fill="none" fill-rule="evenodd">
        <g id="Exports" transform="translate(-643.000000, -924.000000)">
            <g id="Enclaves-Logo-/-Labs-/-Dark-/-Enclaves-Labs" transform="translate(643.000000, 924.000000)">
                <g id="Group-3">
                    <rect id="Rectangle-2" fill="#E3E7EC" transform="translate(38.982756, 8.485281) rotate(45.000000) translate(-38.982756, -8.485281) " x="32.9827561" y="2.48528137" width="12" height="12"></rect>
                    <rect id="Rectangle-2-Copy-3" fill="#E3E7EC" transform="translate(29.083261, 18.384776) rotate(45.000000) translate(-29.083261, -18.384776) " x="23.0832611" y="12.3847763" width="12" height="12"></rect>
                    <rect id="Rectangle-2-Copy-4" fill="#61666A" transform="translate(38.982756, 28.284271) rotate(45.000000) translate(-38.982756, -28.284271) " x="32.9827561" y="22.2842712" width="12" height="12"></rect>
                    <rect id="Rectangle-2-Copy-2" fill="#61666A" transform="translate(58.781746, 28.284271) rotate(45.000000) translate(-58.781746, -28.284271) " x="52.7817459" y="22.2842712" width="12" height="12"></rect>
                    <rect id="Rectangle-2-Copy-5" fill="#E3E7EC" transform="translate(48.882251, 38.183766) rotate(45.000000) translate(-48.882251, -38.183766) " x="42.882251" y="32.1837662" width="12" height="12"></rect>
                    <rect id="Rectangle-2-Copy-8" fill="#C7CFD9" transform="translate(19.183766, 28.284271) rotate(45.000000) translate(-19.183766, -28.284271) " x="13.1837662" y="22.2842712" width="12" height="12"></rect>
                    <rect id="Rectangle-2-Copy-7" fill="#61666A" transform="translate(29.083261, 38.183766) rotate(45.000000) translate(-29.083261, -38.183766) " x="23.0832611" y="32.1837662" width="12" height="12"></rect>
                    <rect id="Rectangle-2-Copy-11" fill="#11C1F4" transform="translate(9.284271, 38.183766) rotate(45.000000) translate(-9.284271, -38.183766) " x="3.28427125" y="32.1837662" width="12" height="12"></rect>
                    <rect id="Rectangle-2-Copy-10" fill="#C7CFD9" transform="translate(19.183766, 48.083261) rotate(45.000000) translate(-19.183766, -48.083261) " x="13.1837662" y="42.0832611" width="12" height="12"></rect>
                    <rect id="Rectangle-2-Copy-16" fill="#61666A" transform="translate(9.284271, 57.982756) rotate(45.000000) translate(-9.284271, -57.982756) " x="3.28427125" y="51.9827561" width="12" height="12"></rect>
                    <rect id="Rectangle-2-Copy-9" fill="#11C1F4" transform="translate(29.083261, 57.982756) rotate(45.000000) translate(-29.083261, -57.982756) " x="23.0832611" y="51.9827561" width="12" height="12"></rect>
                    <rect id="Rectangle-2-Copy-17" fill="#C7CFD9" transform="translate(19.183766, 67.882251) rotate(45.000000) translate(-19.183766, -67.882251) " x="13.1837662" y="61.882251" width="12" height="12"></rect>
                    <rect id="Rectangle-2-Copy-12" fill="#61666A" transform="translate(38.982756, 67.882251) rotate(45.000000) translate(-38.982756, -67.882251) " x="32.9827561" y="61.882251" width="12" height="12"></rect>
                    <rect id="Rectangle-2-Copy-18" fill="#61666A" transform="translate(29.083261, 77.781746) rotate(45.000000) translate(-29.083261, -77.781746) " x="23.0832611" y="71.7817459" width="12" height="12"></rect>
                    <rect id="Rectangle-2-Copy-13" fill="#E3E7EC" transform="translate(48.882251, 77.781746) rotate(45.000000) translate(-48.882251, -77.781746) " x="42.882251" y="71.7817459" width="12" height="12"></rect>
                    <rect id="Rectangle-2-Copy-20" fill="#61666A" transform="translate(48.882251, 97.580736) rotate(45.000000) translate(-48.882251, -97.580736) " x="42.882251" y="91.5807358" width="12" height="12"></rect>
                    <rect id="Rectangle-2-Copy-24" fill="#E3E7EC" transform="translate(9.284271, 77.781746) rotate(45.000000) translate(-9.284271, -77.781746) " x="3.28427125" y="71.7817459" width="12" height="12"></rect>
                    <rect id="Rectangle-2-Copy-23" fill="#C7CFD9" transform="translate(19.183766, 87.681241) rotate(45.000000) translate(-19.183766, -87.681241) " x="13.1837662" y="81.6812409" width="12" height="12"></rect>
                    <rect id="Rectangle-2-Copy-22" fill="#E3E7EC" transform="translate(29.083261, 97.580736) rotate(45.000000) translate(-29.083261, -97.580736) " x="23.0832611" y="91.5807358" width="12" height="12"></rect>
                    <rect id="Rectangle-2-Copy-21" fill="#11C1F4" transform="translate(38.982756, 107.480231) rotate(45.000000) translate(-38.982756, -107.480231) " x="32.9827561" y="101.480231" width="12" height="12"></rect>
                </g>
                <path d="M157.527998,47.4850455 C163.560268,47.4850455 168.03972,48.8487076 170.966488,51.5760728 C173.893256,54.303438 175.356618,58.1464858 175.356618,63.1053316 L175.356618,83.1885566 L168.184955,83.1885566 L168.184955,63.1053316 C168.184955,60.2652654 167.347152,58.1014379 165.671521,56.6137841 C163.995891,55.1261304 161.28141,54.3823147 157.527998,54.3823147 L145.932692,54.3823147 C145.351807,54.3823147 145.061369,54.7204127 145.061369,55.396619 L145.061369,83.1885566 L137.956731,83.1885566 L137.956731,53.029909 C137.956731,50.9111294 138.336535,49.4573078 139.096154,48.6684005 C139.855773,47.8794932 141.129233,47.4850455 142.916572,47.4850455 L157.527998,47.4850455 Z M217.247172,47.4850455 L217.247172,54.3823147 L199.686652,54.3823147 C196.603491,54.3823147 194.35818,55.2388298 192.95065,56.9518856 C191.543121,58.6649414 190.839367,61.4598853 190.839367,65.336801 C190.839367,69.2137168 191.543121,71.9973908 192.95065,73.6879064 C194.35818,75.378422 196.603491,76.2236671 199.686652,76.2236671 L217.247172,76.2236671 L217.247172,83.1885566 L199.016403,83.1885566 C194.279954,83.1885566 190.537768,81.723465 187.789734,78.793238 C185.0417,75.8630109 183.667704,71.3775768 183.667704,65.336801 C183.667704,59.2960253 185.0417,54.8105912 187.789734,51.8803641 C190.537768,48.9501371 194.279954,47.4850455 199.016403,47.4850455 L217.247172,47.4850455 Z M232.796946,32 L232.796946,83.1885566 L225.692308,83.1885566 L225.692308,32 L232.796946,32 Z M265.63914,47.4850455 C267.828631,47.4850455 269.705309,47.7780638 271.269231,48.3641092 C272.833153,48.9501546 274.117783,49.7728599 275.123162,50.8322497 C276.12854,51.8916395 276.854636,53.1426022 277.301471,54.5851756 C277.748305,56.0277489 277.971719,57.5829999 277.971719,59.2509753 L277.971719,76.0208062 C277.971719,77.3281383 277.871183,78.4325919 277.670107,79.3342003 C277.469032,80.2358086 277.100399,80.9683544 276.564197,81.5318596 C276.027995,82.0953648 275.279558,82.5123524 274.318863,82.7828349 C273.358168,83.0533173 272.140562,83.1885566 270.666007,83.1885566 L254.11086,83.1885566 C249.910612,83.1885566 246.883352,82.2193422 245.028988,80.2808843 C243.174623,78.3424264 242.247455,75.6827217 242.247455,72.3016905 C242.247455,70.6787955 242.459698,69.2362438 242.884191,67.9739922 C243.308684,66.7117405 243.990097,65.6410967 244.92845,64.7620286 C245.866803,63.8829605 247.095581,63.2067644 248.614819,62.73342 C250.134057,62.2600757 251.988394,62.023407 254.177885,62.023407 L271.001131,62.023407 L271.001131,59.3185956 C271.001131,57.9211027 270.587815,56.7490294 269.761171,55.8023407 C268.934526,54.855652 267.538189,54.3823147 265.572115,54.3823147 L244.392251,54.3823147 L244.392251,47.4850455 L265.63914,47.4850455 Z M269.05741,76.2236671 C270.35323,76.2236671 271.001131,75.6150906 271.001131,74.3979194 L271.001131,67.7035111 L254.311934,67.7035111 C252.435228,67.7035111 251.117085,68.0754189 250.357466,68.8192458 C249.597847,69.5630726 249.218043,70.5886367 249.218043,71.8959688 C249.218043,73.2033009 249.597847,74.2514048 250.357466,75.0403121 C251.117085,75.8292194 252.390545,76.2236671 254.177885,76.2236671 L269.05741,76.2236671 Z M291.711821,47.4850455 L303.508201,76.1560468 C303.776302,76.8773335 304.357179,77.2379714 305.250848,77.2379714 C306.189202,77.2379714 306.814761,76.8773335 307.127545,76.1560468 L319.3931,47.4850455 L327.033937,47.4850455 L313.36086,79.3342003 C312.601241,81.0472561 311.562365,82.2531391 310.244202,82.9518856 C308.92604,83.650632 307.261605,84 305.250848,84 C303.195408,84 301.508632,83.6393621 300.190469,82.9180754 C298.872307,82.1967888 297.878114,81.0021757 297.207862,79.3342003 L284.205034,47.4850455 L291.711821,47.4850455 Z M356.457862,47.4850455 C360.658109,47.4850455 363.69654,48.44299 365.573247,50.3589077 C367.449953,52.2748254 368.388292,54.9683398 368.388292,58.4395319 C368.388292,61.7304022 367.472294,64.2661376 365.640271,66.046814 C363.808249,67.8274905 360.725135,68.7178153 356.390837,68.7178153 L339.56759,68.7178153 L339.56759,71.2873862 C339.56759,72.7299595 339.980907,73.9133027 340.807551,74.8374512 C341.634195,75.7615998 343.030533,76.2236671 344.996606,76.2236671 L366.645645,76.2236671 L366.645645,83.1885566 L344.996606,83.1885566 C342.762432,83.1885566 340.874583,82.8955383 339.333003,82.3094928 C337.791423,81.7234474 336.517963,80.9007422 335.512585,79.8413524 C334.507207,78.7819626 333.781111,77.5422698 333.334276,76.1222367 C332.887441,74.7022036 332.664027,73.1356826 332.664027,71.4226268 L332.664027,59.2509753 C332.664027,57.5829999 332.887441,56.0277489 333.334276,54.5851756 C333.781111,53.1426022 334.507207,51.8916395 335.512585,50.8322497 C336.517963,49.7728599 337.791423,48.9501546 339.333003,48.3641092 C340.874583,47.7780638 342.762432,47.4850455 344.996606,47.4850455 L356.457862,47.4850455 Z M339.56759,63.1053316 L356.189762,63.1053316 C358.111152,63.1053316 359.462807,62.7221538 360.244768,61.9557867 C361.026729,61.1894197 361.417704,60.1525856 361.417704,58.8452536 C361.417704,57.4928411 361.015558,56.4109273 360.211256,55.5994798 C359.406953,54.7880324 358.133493,54.3823147 356.390837,54.3823147 L344.996606,54.3823147 C343.030533,54.3823147 341.634195,54.855652 340.807551,55.8023407 C339.980907,56.7490294 339.56759,57.9211027 339.56759,59.3185956 L339.56759,63.1053316 Z M100.342146,55.0134374 L121.692025,55.0134374 L121.692025,62.3389681 L99.95735,62.3389681 C100.176978,66.5734495 101.143865,69.7027412 102.858032,71.7269181 C104.824105,74.0485595 108.018926,75.2093628 112.44259,75.2093628 L129.936086,75.2093628 L129.936086,83.1885566 L112.44259,83.1885566 C105.829435,83.1885566 100.769107,81.3064774 97.2614536,77.5422627 C93.7538003,73.7780479 92,68.0641909 92,60.4005202 C92,52.691769 93.7538003,46.9553721 97.2614536,43.1911573 C100.769107,39.4269426 105.829435,37.5448635 112.44259,37.5448635 L129.936086,37.5448635 L129.936086,45.5240572 L112.44259,45.5240572 C108.063609,45.5240572 104.879959,46.6848605 102.891544,49.006502 C101.660938,50.4433383 100.811141,52.4456411 100.342146,55.0134374 Z M406.592477,47.4850455 L406.592477,54.3823147 L387.02121,54.3823147 C385.367922,54.3823147 384.183827,54.7204127 383.468891,55.396619 C382.753956,56.0728252 382.396493,57.0871194 382.396493,58.4395319 C382.396493,59.7017835 382.742785,60.659728 383.435379,61.313394 C384.127973,61.9670601 385.457287,62.2938882 387.42336,62.2938882 L395.734446,62.2938882 C398.192037,62.2938882 400.213934,62.5643666 401.800198,63.1053316 C403.386462,63.6462966 404.63758,64.3675724 405.553592,65.2691808 C406.469603,66.1707891 407.106333,67.230163 407.463801,68.4473342 C407.821269,69.6645054 408,70.9718179 408,72.3693108 C408,73.9471254 407.787757,75.400947 407.363264,76.7308192 C406.938771,78.0606915 406.257358,79.198955 405.319005,80.1456437 C404.380651,81.0923324 403.174216,81.8361481 401.699661,82.3771131 C400.225106,82.9180781 398.460135,83.1885566 396.404695,83.1885566 L375.828054,83.1885566 L375.828054,76.2236671 L396.404695,76.2236671 C398.057983,76.2236671 399.242078,75.9193789 399.957014,75.3107932 C400.671949,74.7022076 401.029412,73.6991834 401.029412,72.3016905 C401.029412,70.8591172 400.638437,69.8335531 399.856476,69.2249675 C399.074515,68.6163819 397.789885,68.3120936 396.002545,68.3120936 L387.624434,68.3120936 C385.166843,68.3120936 383.156116,68.0303453 381.592195,67.4668401 C380.028273,66.9033349 378.788325,66.1369793 377.872313,65.1677503 C376.956302,64.1985214 376.319572,63.0827978 375.962104,61.8205462 C375.604636,60.5582945 375.425905,59.2509821 375.425905,57.8985696 C375.425905,54.69786 376.319561,52.1621247 378.1069,50.2912874 C379.89424,48.4204501 382.843305,47.4850455 386.954186,47.4850455 L406.592477,47.4850455 Z" id="Combined-Shape" fill="#FFFFFF"></path>
                <path d="M440.906,37.7740293 L440.906,67.3210293 C440.906,68.3930347 441.051165,69.4091912 441.3415,70.3695293 C441.631835,71.3298674 442.13433,72.1561925 442.849,72.8485293 C443.56367,73.5408661 444.512827,74.0880273 445.6965,74.4900293 C446.880173,74.8920313 448.365324,75.0930293 450.152,75.0930293 L467.706,75.0930293 L467.706,82.9990293 L449.683,82.9990293 C446.690318,82.9990293 444.133177,82.6081999 442.0115,81.8265293 C439.889823,81.0448587 438.159007,79.9617029 436.819,78.5770293 C435.478993,77.1923557 434.507503,75.5508721 433.9045,73.6525293 C433.301497,71.7541865 433,69.6660407 433,67.3880293 L433,37.7740293 L440.906,37.7740293 Z M497.387,47.6230293 C499.575678,47.6230293 501.451659,47.9133597 503.015,48.4940293 C504.578341,49.0746989 505.862495,49.8898574 506.8675,50.9395293 C507.872505,51.9892012 508.598331,53.2286888 509.045,54.6580293 C509.491669,56.0873698 509.715,57.6283544 509.715,59.2810293 L509.715,75.8970293 C509.715,77.1923691 509.614501,78.2866915 509.4135,79.1800293 C509.212499,80.0733671 508.844003,80.7991932 508.308,81.3575293 C507.771997,81.9158654 507.023838,82.329028 506.0635,82.5970293 C505.103162,82.8650306 503.886007,82.9990293 502.412,82.9990293 L485.863,82.9990293 C481.664312,82.9990293 478.638176,82.0387056 476.7845,80.1180293 C474.930824,78.197353 474.004,75.562046 474.004,72.2120293 C474.004,70.6040213 474.216165,69.1747022 474.6405,67.9240293 C475.064835,66.6733564 475.745995,65.6125337 476.684,64.7415293 C477.622005,63.8705249 478.850326,63.2005316 480.369,62.7315293 C481.887674,62.262527 483.741322,62.0280293 485.93,62.0280293 L502.747,62.0280293 L502.747,59.3480293 C502.747,57.9633557 502.333837,56.802034 501.5075,55.8640293 C500.681163,54.9260246 499.285343,54.4570293 497.32,54.4570293 L476.148,54.4570293 L476.148,47.6230293 L497.387,47.6230293 Z M500.804,76.0980293 C502.09934,76.0980293 502.747,75.4950353 502.747,74.2890293 L502.747,67.6560293 L486.064,67.6560293 C484.187991,67.6560293 482.870337,68.0245256 482.111,68.7615293 C481.351663,69.498533 480.972,70.5146895 480.972,71.8100293 C480.972,73.1053691 481.351663,74.1438587 482.111,74.9255293 C482.870337,75.7071999 484.143324,76.0980293 485.93,76.0980293 L500.804,76.0980293 Z M526.867,32.2800293 L526.867,47.6230293 L542.545,47.6230293 C547.235023,47.6230293 550.953486,49.085848 553.7005,52.0115293 C556.447514,54.9372106 557.821,59.3703329 557.821,65.3110293 C557.821,71.2963926 556.447514,75.7406814 553.7005,78.6440293 C550.953486,81.5473771 547.235023,82.9990293 542.545,82.9990293 L532.763,82.9990293 C528.474979,82.9990293 525.236678,81.7595417 523.048,79.2805293 C520.859322,76.8015169 519.765,72.9937216 519.765,67.8570293 L519.765,32.2800293 L526.867,32.2800293 Z M526.867,54.4570293 L526.867,67.5220293 C526.867,70.5593778 527.469994,72.7480226 528.676,74.0880293 C529.882006,75.428036 531.936652,76.0980293 534.84,76.0980293 L541.808,76.0980293 C544.890015,76.0980293 547.134493,75.2605377 548.5415,73.5855293 C549.948507,71.9105209 550.652,69.1523818 550.652,65.3110293 C550.652,61.4696768 549.948507,58.7003711 548.5415,57.0030293 C547.134493,55.3056875 544.890015,54.4570293 541.808,54.4570293 L526.867,54.4570293 Z M595.81,47.6230293 L595.81,54.4570293 L576.246,54.4570293 C574.593325,54.4570293 573.40967,54.7920259 572.695,55.4620293 C571.98033,56.1320326 571.623,57.1370226 571.623,58.4770293 C571.623,59.7277022 571.969163,60.6768594 572.6615,61.3245293 C573.353837,61.9721992 574.682657,62.2960293 576.648,62.2960293 L584.956,62.2960293 C587.412679,62.2960293 589.433825,62.5640266 591.0195,63.1000293 C592.605175,63.636032 593.855829,64.3506915 594.7715,65.2440293 C595.687171,66.1373671 596.323665,67.1870233 596.681,68.3930293 C597.038335,69.5990353 597.217,70.8943557 597.217,72.2790293 C597.217,73.8423704 597.004835,75.282856 596.5805,76.6005293 C596.156165,77.9182026 595.475005,79.0460246 594.537,79.9840293 C593.598995,80.922034 592.393007,81.6590266 590.919,82.1950293 C589.444993,82.731032 587.680677,82.9990293 585.626,82.9990293 L565.057,82.9990293 L565.057,76.0980293 L585.626,76.0980293 C587.278675,76.0980293 588.46233,75.7965323 589.177,75.1935293 C589.89167,74.5905263 590.249,73.5967029 590.249,72.2120293 C590.249,70.7826888 589.858171,69.7665323 589.0765,69.1635293 C588.294829,68.5605263 587.010676,68.2590293 585.224,68.2590293 L576.849,68.2590293 C574.392321,68.2590293 572.382341,67.9798654 570.819,67.4215293 C569.255659,66.8631932 568.016171,66.1038674 567.1005,65.1435293 C566.184829,64.1831912 565.548335,63.0777022 565.191,61.8270293 C564.833665,60.5763564 564.655,59.281036 564.655,57.9410293 C564.655,54.7696801 565.548324,52.2572052 567.335,50.4035293 C569.121676,48.5498534 572.069646,47.6230293 576.179,47.6230293 L595.81,47.6230293 Z" id="Labs" fill="#11C1F4"></path>
            </g>
        </g>
    </g>
</svg>