<?xml version="1.0" encoding="UTF-8"?>
<svg width="262px" height="40px" viewBox="0 0 262 40" version="1.1" xmlns="http://www.w3.org/2000/svg" xmlns:xlink="http://www.w3.org/1999/xlink">
    <!-- Generator: Sketch 49.2 (51160) - http://www.bohemiancoding.com/sketch -->
    <title>Enclaves Logo / GITF / Light / Responsive / Enclaves GITF</title>
    <desc>Created with Sketch.</desc>
    <defs></defs>
    <g id="Page-1" stroke="none" stroke-width="1" fill="none" fill-rule="evenodd">
        <g id="Exports" transform="translate(-1772.000000, -570.000000)">
            <g id="Enclaves-Logo-/-GITF-/-Light-/-Responsive-/-Enclaves-GITF" transform="translate(1772.000000, 570.000000)">
                <path d="M219.460998,23.3018192 L219.460998,19.9355393 L224.551135,19.9355393 L224.551135,27.4086807 C224.551135,31.1789142 222.700176,33.3333333 219.130469,33.3333333 C215.560763,33.3333333 213.709804,31.1789142 213.709804,27.4086807 L213.709804,15.1554219 C213.709804,11.3851884 215.560763,9.23076923 219.130469,9.23076923 C222.700176,9.23076923 224.551135,11.3851884 224.551135,15.1554219 L224.551135,17.4444922 L221.11364,17.4444922 L221.11364,14.9197823 C221.11364,13.2366423 220.386477,12.5970491 219.229628,12.5970491 C218.072778,12.5970491 217.345616,13.2366423 217.345616,14.9197823 L217.345616,27.6443203 C217.345616,29.3274602 218.072778,29.9333906 219.229628,29.9333906 C220.386477,29.9333906 221.11364,29.3274602 221.11364,27.6443203 L221.11364,23.3018192 L219.460998,23.3018192 Z M229.376849,33.0640309 L229.376849,9.50007162 L233.012661,9.50007162 L233.012661,33.0640309 L229.376849,33.0640309 Z M237.07816,12.8663515 L237.07816,9.50007162 L248.316125,9.50007162 L248.316125,12.8663515 L244.515049,12.8663515 L244.515049,33.0640309 L240.879237,33.0640309 L240.879237,12.8663515 L237.07816,12.8663515 Z M256.017436,12.8663515 L256.017436,19.9692021 L260.710939,19.9692021 L260.710939,23.335482 L256.017436,23.335482 L256.017436,33.0640309 L252.381624,33.0640309 L252.381624,9.50007162 L262,9.50007162 L262,12.8663515 L256.017436,12.8663515 Z" id="GITF" fill="#11C1F4"></path>
                <path d="M76.8163439,14.6077156 C79.9152748,14.6077156 82.2164834,15.3070296 83.7200387,16.7056784 C85.223594,18.1043272 85.9753604,20.0751209 85.9753604,22.6181188 L85.9753604,32.9172085 L82.2910944,32.9172085 L82.2910944,22.6181188 C82.2910944,21.1616746 81.8606938,20.0520194 80.9998797,19.2891201 C80.1390655,18.5262207 78.7445676,18.1447768 76.8163439,18.1447768 L70.85954,18.1447768 C70.5611244,18.1447768 70.4119189,18.3181604 70.4119189,18.6649328 L70.4119189,32.9172085 L66.7620852,32.9172085 L66.7620852,17.4512354 C66.7620852,16.3646818 66.9572002,15.6191322 67.3474359,15.2145644 C67.7376716,14.8099965 68.3918806,14.6077156 69.3100823,14.6077156 L76.8163439,14.6077156 Z M107.495606,14.6077156 L107.495606,18.1447768 L98.474319,18.1447768 C96.8904211,18.1447768 95.7369474,18.5840153 95.0138636,19.4625054 C94.2907797,20.3409956 93.9292432,21.7743001 93.9292432,23.7624621 C93.9292432,25.750624 94.2907797,27.1781491 95.0138636,28.0450802 C95.7369474,28.9120113 96.8904211,29.3454703 98.474319,29.3454703 L107.495606,29.3454703 L107.495606,32.9172085 L98.1299951,32.9172085 C95.6967605,32.9172085 93.7743045,32.1658795 92.3625693,30.663199 C90.9508341,29.1605184 90.2449772,26.8602958 90.2449772,23.7624621 C90.2449772,20.6646283 90.9508341,18.3644057 92.3625693,16.8617252 C93.7743045,15.3590446 95.6967605,14.6077156 98.1299951,14.6077156 L107.495606,14.6077156 Z M115.483921,6.66666667 L115.483921,32.9172085 L111.834087,32.9172085 L111.834087,6.66666667 L115.483921,6.66666667 Z M132.355794,14.6077156 C133.480591,14.6077156 134.444688,14.7579814 135.248115,15.0585176 C136.051541,15.3590537 136.711489,15.7809538 137.227977,16.3242306 C137.744466,16.8675074 138.11748,17.5090268 138.34703,18.248808 C138.57658,18.9885892 138.691354,19.7861538 138.691354,20.6415258 L138.691354,29.2414391 C138.691354,29.9118658 138.639706,30.4782523 138.536408,30.9406155 C138.43311,31.4029788 138.243734,31.7786433 137.968274,32.0676203 C137.692813,32.3565973 137.308322,32.5704371 136.814789,32.7091461 C136.321255,32.847855 135.69574,32.9172085 134.938223,32.9172085 L126.433422,32.9172085 C124.275648,32.9172085 122.720467,32.4201755 121.767833,31.4260945 C120.815199,30.4320135 120.338889,29.0680624 120.338889,27.3342003 C120.338889,26.5019464 120.447923,25.7621763 120.665996,25.1148678 C120.884069,24.4675593 121.234128,23.9185111 121.716184,23.467707 C122.19824,23.0169028 122.829494,22.6701356 123.609966,22.4273949 C124.390437,22.1846542 125.343057,22.0632857 126.467854,22.0632857 L135.110385,22.0632857 L135.110385,20.6762029 C135.110385,19.9595398 134.898054,19.3584766 134.473386,18.8729952 C134.048717,18.3875138 133.331383,18.1447768 132.321361,18.1447768 L121.440725,18.1447768 L121.440725,14.6077156 L132.355794,14.6077156 Z M134.111846,29.3454703 C134.777542,29.3454703 135.110385,29.0333798 135.110385,28.4091894 L135.110385,24.9761595 L126.536719,24.9761595 C125.572607,24.9761595 124.895444,25.1668815 124.505208,25.5483312 C124.114972,25.9297808 123.919857,26.4557111 123.919857,27.1261378 C123.919857,27.7965645 124.114972,28.3340537 124.505208,28.7386216 C124.895444,29.1431894 125.549653,29.3454703 126.467854,29.3454703 L134.111846,29.3454703 Z M145.749994,14.6077156 L151.810096,29.3107932 C151.947826,29.6806838 152.246237,29.8656264 152.705338,29.8656264 C153.187394,29.8656264 153.50876,29.6806838 153.669445,29.3107932 L159.970573,14.6077156 L163.895865,14.6077156 L156.871657,30.9406155 C156.481422,31.8191057 155.947725,32.4375072 155.270551,32.7958388 C154.593377,33.1541703 153.738315,33.3333333 152.705338,33.3333333 C151.649406,33.3333333 150.782866,33.1483908 150.105692,32.7785002 C149.428518,32.4086096 148.917776,31.7959875 148.573451,30.9406155 L141.893566,14.6077156 L145.749994,14.6077156 Z M179.011686,14.6077156 C181.16946,14.6077156 182.73038,15.0989692 183.694491,16.0814911 C184.658603,17.064013 185.140652,18.4453025 185.140652,20.225401 C185.140652,21.9130268 184.670081,23.2134039 183.728924,24.1265713 C182.787767,25.0397387 181.203893,25.4963156 178.977254,25.4963156 L170.334723,25.4963156 L170.334723,26.8140442 C170.334723,27.5538254 170.547054,28.1606681 170.971722,28.6345904 C171.396391,29.1085127 172.113725,29.3454703 173.123747,29.3454703 L184.24541,29.3454703 L184.24541,32.9172085 L173.123747,32.9172085 C171.975995,32.9172085 171.006159,32.7669427 170.21421,32.4664066 C169.422261,32.1658705 168.768052,31.7439704 168.251563,31.2006935 C167.735075,30.6574167 167.362061,30.0216768 167.13251,29.2934547 C166.90296,28.5652326 166.788186,27.7618885 166.788186,26.8833984 L166.788186,20.6415258 C166.788186,19.7861538 166.90296,18.9885892 167.13251,18.248808 C167.362061,17.5090268 167.735075,16.8675074 168.251563,16.3242306 C168.768052,15.7809538 169.422261,15.3590537 170.21421,15.0585176 C171.006159,14.7579814 171.975995,14.6077156 173.123747,14.6077156 L179.011686,14.6077156 Z M170.334723,22.6181188 L178.873956,22.6181188 C179.861023,22.6181188 180.555403,22.4216173 180.957116,22.0286086 C181.358829,21.6355998 181.559683,21.1038901 181.559683,20.4334634 C181.559683,19.7399185 181.353091,19.1850909 180.9399,18.768964 C180.526709,18.3528371 179.8725,18.1447768 178.977254,18.1447768 L173.123747,18.1447768 C172.113725,18.1447768 171.396391,18.3875138 170.971722,18.8729952 C170.547054,19.3584766 170.334723,19.9595398 170.334723,20.6762029 L170.334723,22.6181188 Z M47.4385145,18.4684294 L58.4064912,18.4684294 L58.4064912,22.2251118 L47.2408347,22.2251118 C47.3536631,24.3966408 47.8503778,26.0014057 48.7309888,27.0394452 C49.7410107,28.2300305 51.3822717,28.8253143 53.654821,28.8253143 L62.6416755,28.8253143 L62.6416755,32.9172085 L53.654821,32.9172085 C50.2574746,32.9172085 47.6578549,31.9520397 45.855884,30.0216732 C44.0539131,28.0913066 43.1529412,25.1611235 43.1529412,21.231036 C43.1529412,17.2778303 44.0539131,14.3360883 45.855884,12.4057217 C47.6578549,10.4753552 50.2574746,9.51018639 53.654821,9.51018639 L62.6416755,9.51018639 L62.6416755,13.6020806 L53.654821,13.6020806 C51.4052268,13.6020806 49.7697044,14.1973644 48.748205,15.3879497 C48.1160111,16.1247889 47.6794488,17.1516108 47.4385145,18.4684294 Z M204.767116,14.6077156 L204.767116,18.1447768 L194.712857,18.1447768 C193.863521,18.1447768 193.255221,18.3181604 192.88794,18.6649328 C192.52066,19.0117052 192.337022,19.5318561 192.337022,20.225401 C192.337022,20.8727095 192.514921,21.3639631 192.870724,21.6991764 C193.226527,22.0343898 193.90943,22.2019939 194.919451,22.2019939 L199.189068,22.2019939 C200.451596,22.2019939 201.490296,22.3407008 202.3052,22.6181188 C203.120104,22.8955367 203.762835,23.2654218 204.233414,23.727785 C204.703992,24.1901482 205.031097,24.7334169 205.214737,25.3576073 C205.398377,25.9817977 205.490196,26.6522143 205.490196,27.3688773 C205.490196,28.178013 205.381161,28.9235625 205.163088,29.6055483 C204.945015,30.2875341 204.594956,30.871259 204.1129,31.3567404 C203.630844,31.8422218 203.011068,32.2236657 202.253551,32.5010837 C201.496035,32.7785016 200.589324,32.9172085 199.533392,32.9172085 L188.962648,32.9172085 L188.962648,29.3454703 L199.533392,29.3454703 C200.382729,29.3454703 200.991028,29.1894251 201.358309,28.8773299 C201.72559,28.5652347 201.909227,28.0508633 201.909227,27.3342003 C201.909227,26.5944191 201.708374,26.0684888 201.30666,25.7563936 C200.904947,25.4442984 200.244999,25.2882531 199.326798,25.2882531 L195.022749,25.2882531 C193.760221,25.2882531 192.72726,25.1437668 191.923833,24.8547898 C191.120407,24.5658127 190.483414,24.1728099 190.012835,23.6757694 C189.542257,23.1787289 189.215153,22.606563 189.031512,21.9592544 C188.847872,21.3119459 188.756053,20.6415293 188.756053,19.9479844 C188.756053,18.3065949 189.215147,17.0062178 190.133349,16.046814 C191.051551,15.0874103 192.566561,14.6077156 194.678425,14.6077156 L204.767116,14.6077156 Z" id="Combined-Shape" fill="#2A2E34"></path>
                <g id="Group-4">
                    <rect id="Rectangle-2" fill="#E3E7EC" transform="translate(20.035294, 4.770008) rotate(45.000000) translate(-20.035294, -4.770008) " x="16.9529412" y="1.69308471" width="6.16470588" height="6.15384615"></rect>
                    <rect id="Rectangle-2-Copy-3" fill="#E3E7EC" transform="translate(14.949671, 9.846672) rotate(45.000000) translate(-14.949671, -9.846672) " x="11.8673183" y="6.76974878" width="6.16470588" height="6.15384615"></rect>
                    <rect id="Rectangle-2-Copy-4" fill="#61666A" transform="translate(20.035294, 14.923336) rotate(45.000000) translate(-20.035294, -14.923336) " x="16.9529412" y="11.8464129" width="6.16470588" height="6.15384615"></rect>
                    <rect id="Rectangle-2-Copy-8" fill="#61666A" transform="translate(9.864048, 14.923336) rotate(45.000000) translate(-9.864048, -14.923336) " x="6.7816954" y="11.8464129" width="6.16470588" height="6.15384615"></rect>
                    <rect id="Rectangle-2-Copy-7" fill="#E3E7EC" transform="translate(14.949671, 20.000000) rotate(45.000000) translate(-14.949671, -20.000000) " x="11.8673183" y="16.9230769" width="6.16470588" height="6.15384615"></rect>
                    <rect id="Rectangle-2-Copy-11" fill="#11C1F4" transform="translate(4.778425, 20.000000) rotate(45.000000) translate(-4.778425, -20.000000) " x="1.69607251" y="16.9230769" width="6.16470588" height="6.15384615"></rect>
                    <rect id="Rectangle-2-Copy-9" fill="#11C1F4" transform="translate(14.949671, 30.153328) rotate(45.000000) translate(-14.949671, -30.153328) " x="11.8673183" y="27.0764051" width="6.16470588" height="6.15384615"></rect>
                    <rect id="Rectangle-2-Copy-17" fill="#C7CFD9" transform="translate(20.035294, 25.076664) rotate(45.000000) translate(-20.035294, -25.076664) " x="16.9529412" y="21.999741" width="6.16470588" height="6.15384615"></rect>
                    <rect id="Rectangle-2-Copy-12" fill="#61666A" transform="translate(20.035294, 35.229992) rotate(45.000000) translate(-20.035294, -35.229992) " x="16.9529412" y="32.1530691" width="6.16470588" height="6.15384615"></rect>
                    <rect id="Rectangle-2-Copy-14" fill="#61666A" transform="translate(30.206540, 25.076664) rotate(45.000000) translate(-30.206540, -25.076664) " x="27.124187" y="21.999741" width="6.16470588" height="6.15384615"></rect>
                    <rect id="Rectangle-2-Copy-13" fill="#E3E7EC" transform="translate(25.120917, 30.153328) rotate(45.000000) translate(-25.120917, -30.153328) " x="22.0385641" y="27.0764051" width="6.16470588" height="6.15384615"></rect>
                </g>
            </g>
        </g>
    </g>
</svg>