<?xml version="1.0" encoding="UTF-8"?>
<svg width="288px" height="40px" viewBox="0 0 288 40" version="1.1" xmlns="http://www.w3.org/2000/svg" xmlns:xlink="http://www.w3.org/1999/xlink">
    <!-- Generator: Sketch 49.2 (51160) - http://www.bohemiancoding.com/sketch -->
    <title>Enclaves Logo / DEX / Light / Responsive / Enclaves DEX</title>
    <desc>Created with Sketch.</desc>
    <defs></defs>
    <g id="Page-1" stroke="none" stroke-width="1" fill="none" fill-rule="evenodd">
        <g id="Exports" transform="translate(-1759.000000, -1158.000000)">
            <g id="Enclaves-Logo-/-DEX-/-Light-/-Responsive-/-Enclaves-DEX" transform="translate(1759.000000, 1158.000000)">
                <path d="M76.6264472,14.6077156 C79.7177173,14.6077156 82.0132371,15.3070296 83.5130755,16.7056784 C85.0129139,18.1043272 85.7628219,20.0751209 85.7628219,22.6181188 L85.7628219,32.9172085 L82.0876636,32.9172085 L82.0876636,22.6181188 C82.0876636,21.1616746 81.658327,20.0520194 80.7996409,19.2891201 C79.9409548,18.5262207 78.5499041,18.1447768 76.6264472,18.1447768 L70.684369,18.1447768 C70.3866912,18.1447768 70.2378545,18.3181604 70.2378545,18.6649328 L70.2378545,32.9172085 L66.5970435,32.9172085 L66.5970435,17.4512354 C66.5970435,16.3646818 66.7916761,15.6191322 67.1809472,15.2145644 C67.5702182,14.8099965 68.2228099,14.6077156 69.1387417,14.6077156 L76.6264472,14.6077156 Z M107.229867,14.6077156 L107.229867,18.1447768 L98.230882,18.1447768 C96.6508995,18.1447768 95.5002774,18.5840153 94.778981,19.4625054 C94.0576847,20.3409956 93.6970419,21.7743001 93.6970419,23.7624621 C93.6970419,25.750624 94.0576847,27.1781491 94.778981,28.0450802 C95.5002774,28.9120113 96.6508995,29.3454703 98.230882,29.3454703 L107.229867,29.3454703 L107.229867,32.9172085 L97.8874092,32.9172085 C95.4601898,32.9172085 93.5424862,32.1658795 92.134241,30.663199 C90.7259958,29.1605184 90.0218837,26.8602958 90.0218837,23.7624621 C90.0218837,20.6646283 90.7259958,18.3644057 92.134241,16.8617252 C93.5424862,15.3590446 95.4601898,14.6077156 97.8874092,14.6077156 L107.229867,14.6077156 Z M115.198435,6.66666667 L115.198435,32.9172085 L111.557624,32.9172085 L111.557624,6.66666667 L115.198435,6.66666667 Z M132.028599,14.6077156 C133.150615,14.6077156 134.112329,14.7579814 134.91377,15.0585176 C135.71521,15.3590537 136.373526,15.7809538 136.888738,16.3242306 C137.403949,16.8675074 137.776041,17.5090268 138.005024,18.248808 C138.234007,18.9885892 138.348497,19.7861538 138.348497,20.6415258 L138.348497,29.2414391 C138.348497,29.9118658 138.296976,30.4782523 138.193934,30.9406155 C138.090892,31.4029788 137.901984,31.7786433 137.627204,32.0676203 C137.352425,32.3565973 136.968884,32.5704371 136.47657,32.7091461 C135.984257,32.847855 135.360288,32.9172085 134.604644,32.9172085 L126.120868,32.9172085 C123.968428,32.9172085 122.417091,32.4201755 121.466812,31.4260945 C120.516533,30.4320135 120.0414,29.0680624 120.0414,27.3342003 C120.0414,26.5019464 120.150166,25.7621763 120.367699,25.1148678 C120.585233,24.4675593 120.934427,23.9185111 121.415291,23.467707 C121.896155,23.0169028 122.525849,22.6701356 123.304391,22.4273949 C124.082933,22.1846542 125.033198,22.0632857 126.155215,22.0632857 L134.77638,22.0632857 L134.77638,20.6762029 C134.77638,19.9595398 134.564574,19.3584766 134.140956,18.8729952 C133.717337,18.3875138 133.001776,18.1447768 131.994251,18.1447768 L121.140513,18.1447768 L121.140513,14.6077156 L132.028599,14.6077156 Z M133.780309,29.3454703 C134.44436,29.3454703 134.77638,29.0333798 134.77638,28.4091894 L134.77638,24.9761595 L126.223909,24.9761595 C125.262181,24.9761595 124.586691,25.1668815 124.19742,25.5483312 C123.808149,25.9297808 123.613517,26.4557111 123.613517,27.1261378 C123.613517,27.7965645 123.808149,28.3340537 124.19742,28.7386216 C124.586691,29.1431894 125.239283,29.3454703 126.155215,29.3454703 L133.780309,29.3454703 Z M145.389688,14.6077156 L151.434808,29.3107932 C151.572198,29.6806838 151.869871,29.8656264 152.327837,29.8656264 C152.808701,29.8656264 153.129272,29.6806838 153.289561,29.3107932 L159.575112,14.6077156 L163.490701,14.6077156 L156.483857,30.9406155 C156.094586,31.8191057 155.562208,32.4375072 154.886709,32.7958388 C154.211209,33.1541703 153.35826,33.3333333 152.327837,33.3333333 C151.274515,33.3333333 150.410118,33.1483908 149.734618,32.7785002 C149.059118,32.4086096 148.549639,31.7959875 148.206164,30.9406155 L141.542793,14.6077156 L145.389688,14.6077156 Z M178.569153,14.6077156 C180.721593,14.6077156 182.278654,15.0989692 183.240383,16.0814911 C184.202111,17.064013 184.682968,18.4453025 184.682968,20.225401 C184.682968,21.9130268 184.21356,23.2134039 183.27473,24.1265713 C182.3359,25.0397387 180.755941,25.4963156 178.534806,25.4963156 L169.913641,25.4963156 L169.913641,26.8140442 C169.913641,27.5538254 170.125447,28.1606681 170.549065,28.6345904 C170.972684,29.1085127 171.688245,29.3454703 172.69577,29.3454703 L183.789939,29.3454703 L183.789939,32.9172085 L172.69577,32.9172085 C171.550855,32.9172085 170.583416,32.7669427 169.793425,32.4664066 C169.003434,32.1658705 168.350842,31.7439704 167.835631,31.2006935 C167.320419,30.6574167 166.948327,30.0216768 166.719344,29.2934547 C166.490361,28.5652326 166.375872,27.7618885 166.375872,26.8833984 L166.375872,20.6415258 C166.375872,19.7861538 166.490361,18.9885892 166.719344,18.248808 C166.948327,17.5090268 167.320419,16.8675074 167.835631,16.3242306 C168.350842,15.7809538 169.003434,15.3590537 169.793425,15.0585176 C170.583416,14.7579814 171.550855,14.6077156 172.69577,14.6077156 L178.569153,14.6077156 Z M169.913641,22.6181188 L178.431764,22.6181188 C179.416391,22.6181188 180.109054,22.4216173 180.509774,22.0286086 C180.910495,21.6355998 181.110852,21.1038901 181.110852,20.4334634 C181.110852,19.7399185 180.90477,19.1850909 180.492601,18.768964 C180.080431,18.3528371 179.42784,18.1447768 178.534806,18.1447768 L172.69577,18.1447768 C171.688245,18.1447768 170.972684,18.3875138 170.549065,18.8729952 C170.125447,19.3584766 169.913641,19.9595398 169.913641,20.6762029 L169.913641,22.6181188 Z M47.3212423,18.4684294 L58.2621053,18.4684294 L58.2621053,22.2251118 L47.1240512,22.2251118 C47.2366007,24.3966408 47.7320875,26.0014057 48.6105216,27.0394452 C49.6180466,28.2300305 51.2552503,28.8253143 53.5221816,28.8253143 L62.4868199,28.8253143 L62.4868199,32.9172085 L53.5221816,32.9172085 C50.1332337,32.9172085 47.5400405,31.9520397 45.7425243,30.0216732 C43.945008,28.0913066 43.0462633,25.1611235 43.0462633,21.231036 C43.0462633,17.2778303 43.945008,14.3360883 45.7425243,12.4057217 C47.5400405,10.4753552 50.1332337,9.51018639 53.5221816,9.51018639 L62.4868199,9.51018639 L62.4868199,13.6020806 L53.5221816,13.6020806 C51.2781486,13.6020806 49.6466694,14.1973644 48.6276952,15.3879497 C47.9970641,16.1247889 47.5615811,17.1516108 47.3212423,18.4684294 Z M204.260914,14.6077156 L204.260914,18.1447768 L194.23151,18.1447768 C193.384273,18.1447768 192.777477,18.3181604 192.411104,18.6649328 C192.044732,19.0117052 191.861548,19.5318561 191.861548,20.225401 C191.861548,20.8727095 192.039007,21.3639631 192.393931,21.6991764 C192.748854,22.0343898 193.430069,22.2019939 194.437594,22.2019939 L198.696655,22.2019939 C199.956062,22.2019939 200.992194,22.3407008 201.805084,22.6181188 C202.617973,22.8955367 203.259116,23.2654218 203.728531,23.727785 C204.197946,24.1901482 204.524242,24.7334169 204.707428,25.3576073 C204.890615,25.9817977 204.982206,26.6522143 204.982206,27.3688773 C204.982206,28.178013 204.873441,28.9235625 204.655907,29.6055483 C204.438373,30.2875341 204.08918,30.871259 203.608315,31.3567404 C203.127451,31.8422218 202.509207,32.2236657 201.753563,32.5010837 C200.997919,32.7785016 200.09345,32.9172085 199.040128,32.9172085 L188.495515,32.9172085 L188.495515,29.3454703 L199.040128,29.3454703 C199.887365,29.3454703 200.494161,29.1894251 200.860534,28.8773299 C201.226906,28.5652347 201.41009,28.0508633 201.41009,27.3342003 C201.41009,26.5944191 201.209733,26.0684888 200.809013,25.7563936 C200.408293,25.4442984 199.749976,25.2882531 198.834045,25.2882531 L194.540635,25.2882531 C193.281229,25.2882531 192.250821,25.1437668 191.449381,24.8547898 C190.64794,24.5658127 190.012522,24.1728099 189.543107,23.6757694 C189.073692,23.1787289 188.747396,22.606563 188.56421,21.9592544 C188.381024,21.3119459 188.289432,20.6415293 188.289432,19.9479844 C188.289432,18.3065949 188.747391,17.0062178 189.663323,16.046814 C190.579255,15.0874103 192.090519,14.6077156 194.197163,14.6077156 L204.260914,14.6077156 Z" id="Combined-Shape" fill="#2A2E34"></path>
                <path d="M243.591705,18.7018328 L254.532568,18.7018328 L254.532568,22.4585152 L243.394514,22.4585152 C243.507063,24.6300441 244.00255,26.2348091 244.880984,27.2728485 C245.888509,28.4634339 247.525713,29.0587176 249.792644,29.0587176 L258.757282,29.0587176 L258.757282,33.1506119 L249.792644,33.1506119 C246.403696,33.1506119 243.810503,32.1854431 242.012987,30.2550765 C240.215471,28.32471 239.316726,25.3945269 239.316726,21.4644393 C239.316726,17.5112336 240.215471,14.5694916 242.012987,12.6391251 C243.810503,10.7087585 246.403696,9.74358974 249.792644,9.74358974 L258.757282,9.74358974 L258.757282,13.835484 L249.792644,13.835484 C247.548611,13.835484 245.917132,14.4307677 244.898158,15.6213531 C244.267527,16.3581922 243.832044,17.3850142 243.591705,18.7018328 Z M225.325665,9.86160848 C228.736245,9.86160848 231.328475,10.8121973 233.102434,12.7134034 C234.876393,14.6146094 235.763359,17.5350931 235.763359,21.4749418 C235.763359,25.3918845 234.876393,28.3009152 233.102434,30.2021213 C231.328475,32.1033274 228.736245,33.0539162 225.325665,33.0539162 L217.15405,33.0539162 C215.872221,33.0539162 215.231317,32.4240079 215.231317,31.1641726 L215.231317,11.7513521 C215.231317,10.4915167 215.872221,9.86160848 217.15405,9.86160848 L225.325665,9.86160848 Z M219.28279,28.5872495 C219.28279,28.8621227 219.431571,28.9995572 219.729139,28.9995572 L225.325665,28.9995572 C227.568865,28.9995572 229.194016,28.4040076 230.201167,27.2128905 C231.208318,26.0217735 231.711886,24.0976901 231.711886,21.4405828 C231.711886,18.7834755 231.214041,16.8651187 230.218335,15.6854546 C229.222628,14.5057906 227.591755,13.9159675 225.325665,13.9159675 L219.729139,13.9159675 C219.431571,13.9159675 219.28279,14.053402 219.28279,14.3282751 L219.28279,28.5872495 Z M268.072142,9.86160848 L275.179388,18.4169931 L282.629979,9.86160848 L287.642819,9.86160848 L277.720142,21.268788 L287.711488,33.0539162 L282.767317,33.0539162 L275.076384,23.845711 L267.179445,33.0539162 L262.166605,33.0539162 L272.53563,20.9595572 L263.127972,9.86160848 L268.072142,9.86160848 Z" id="Combined-Shape" fill="#11C1F4"></path>
                <g id="Group-4">
                    <rect id="Rectangle-2" fill="#E3E7EC" transform="translate(19.985765, 4.770008) rotate(45.000000) translate(-19.985765, -4.770008) " x="16.911032" y="1.69308471" width="6.14946619" height="6.15384615"></rect>
                    <rect id="Rectangle-2-Copy-3" fill="#E3E7EC" transform="translate(14.912714, 9.846672) rotate(45.000000) translate(-14.912714, -9.846672) " x="11.8379812" y="6.76974878" width="6.14946619" height="6.15384615"></rect>
                    <rect id="Rectangle-2-Copy-4" fill="#61666A" transform="translate(19.985765, 14.923336) rotate(45.000000) translate(-19.985765, -14.923336) " x="16.911032" y="11.8464129" width="6.14946619" height="6.15384615"></rect>
                    <rect id="Rectangle-2-Copy-8" fill="#61666A" transform="translate(9.839664, 14.923336) rotate(45.000000) translate(-9.839664, -14.923336) " x="6.76493046" y="11.8464129" width="6.14946619" height="6.15384615"></rect>
                    <rect id="Rectangle-2-Copy-7" fill="#E3E7EC" transform="translate(14.912714, 20.000000) rotate(45.000000) translate(-14.912714, -20.000000) " x="11.8379812" y="16.9230769" width="6.14946619" height="6.15384615"></rect>
                    <rect id="Rectangle-2-Copy-11" fill="#11C1F4" transform="translate(4.766613, 20.000000) rotate(45.000000) translate(-4.766613, -20.000000) " x="1.69187967" y="16.9230769" width="6.14946619" height="6.15384615"></rect>
                    <rect id="Rectangle-2-Copy-9" fill="#11C1F4" transform="translate(14.912714, 30.153328) rotate(45.000000) translate(-14.912714, -30.153328) " x="11.8379812" y="27.0764051" width="6.14946619" height="6.15384615"></rect>
                    <rect id="Rectangle-2-Copy-17" fill="#C7CFD9" transform="translate(19.985765, 25.076664) rotate(45.000000) translate(-19.985765, -25.076664) " x="16.911032" y="21.999741" width="6.14946619" height="6.15384615"></rect>
                    <rect id="Rectangle-2-Copy-12" fill="#61666A" transform="translate(19.985765, 35.229992) rotate(45.000000) translate(-19.985765, -35.229992) " x="16.911032" y="32.1530691" width="6.14946619" height="6.15384615"></rect>
                    <rect id="Rectangle-2-Copy-14" fill="#61666A" transform="translate(30.131867, 25.076664) rotate(45.000000) translate(-30.131867, -25.076664) " x="27.0571336" y="21.999741" width="6.14946619" height="6.15384615"></rect>
                    <rect id="Rectangle-2-Copy-13" fill="#E3E7EC" transform="translate(25.058816, 30.153328) rotate(45.000000) translate(-25.058816, -30.153328) " x="21.9840828" y="27.0764051" width="6.14946619" height="6.15384615"></rect>
                </g>
            </g>
        </g>
    </g>
</svg>