<?xml version="1.0" encoding="UTF-8"?>
<svg width="300px" height="40px" viewBox="0 0 300 40" version="1.1" xmlns="http://www.w3.org/2000/svg" xmlns:xlink="http://www.w3.org/1999/xlink">
    <!-- Generator: Sketch 49.2 (51160) - http://www.bohemiancoding.com/sketch -->
    <title>Enclaves Logo / Labs / Dark / Responsive / Enclaves Labs</title>
    <desc>Created with Sketch.</desc>
    <defs></defs>
    <g id="Page-1" stroke="none" stroke-width="1" fill="none" fill-rule="evenodd">
        <g id="Exports" transform="translate(-1753.000000, -962.000000)">
            <g id="Enclaves-Logo-/-Labs-/-Dark-/-Responsive-/-Enclaves-Labs" transform="translate(1753.000000, 962.000000)">
                <path d="M76.6810245,14.6077156 C79.7744963,14.6077156 82.071651,15.3070296 83.5725577,16.7056784 C85.0734644,18.1043272 85.8239065,20.0751209 85.8239065,22.6181188 L85.8239065,32.9172085 L82.1461306,32.9172085 L82.1461306,22.6181188 C82.1461306,21.1616746 81.7164882,20.0520194 80.8571905,19.2891201 C79.9978928,18.5262207 78.6058514,18.1447768 76.6810245,18.1447768 L70.734714,18.1447768 C70.4368241,18.1447768 70.2878814,18.3181604 70.2878814,18.6649328 L70.2878814,32.9172085 L66.6444773,32.9172085 L66.6444773,17.4512354 C66.6444773,16.3646818 66.8392485,15.6191322 67.2287968,15.2145644 C67.6183451,14.8099965 68.2714016,14.6077156 69.1879858,14.6077156 L76.6810245,14.6077156 Z M107.306242,14.6077156 L107.306242,18.1447768 L98.300847,18.1447768 C96.7197392,18.1447768 95.5682975,18.5840153 94.8464874,19.4625054 C94.1246773,20.3409956 93.7637777,21.7743001 93.7637777,23.7624621 C93.7637777,25.750624 94.1246773,27.1781491 94.8464874,28.0450802 C95.5682975,28.9120113 96.7197392,29.3454703 98.300847,29.3454703 L107.306242,29.3454703 L107.306242,32.9172085 L97.9571296,32.9172085 C95.5281814,32.9172085 93.6091119,32.1658795 92.1998637,30.663199 C90.7906154,29.1605184 90.0860019,26.8602958 90.0860019,23.7624621 C90.0860019,20.6646283 90.7906154,18.3644057 92.1998637,16.8617252 C93.6091119,15.3590446 95.5281814,14.6077156 97.9571296,14.6077156 L107.306242,14.6077156 Z M115.280485,6.66666667 L115.280485,32.9172085 L111.637081,32.9172085 L111.637081,6.66666667 L115.280485,6.66666667 Z M132.122636,14.6077156 C133.245452,14.6077156 134.207851,14.7579814 135.009862,15.0585176 C135.811873,15.3590537 136.470658,15.7809538 136.986237,16.3242306 C137.501815,16.8675074 137.874172,17.5090268 138.103318,18.248808 C138.332464,18.9885892 138.447036,19.7861538 138.447036,20.6415258 L138.447036,29.2414391 C138.447036,29.9118658 138.395479,30.4782523 138.292363,30.9406155 C138.189247,31.4029788 138.000204,31.7786433 137.725229,32.0676203 C137.450254,32.3565973 137.06644,32.5704371 136.573776,32.7091461 C136.081112,32.847855 135.456698,32.9172085 134.700516,32.9172085 L126.210697,32.9172085 C124.056724,32.9172085 122.504283,32.4201755 121.553327,31.4260945 C120.602371,30.4320135 120.1269,29.0680624 120.1269,27.3342003 C120.1269,26.5019464 120.235743,25.7621763 120.453431,25.1148678 C120.67112,24.4675593 121.020563,23.9185111 121.501769,23.467707 C121.982976,23.0169028 122.613118,22.6701356 123.392215,22.4273949 C124.171311,22.1846542 125.122253,22.0632857 126.245069,22.0632857 L134.872375,22.0632857 L134.872375,20.6762029 C134.872375,19.9595398 134.660418,19.3584766 134.236498,18.8729952 C133.812578,18.3875138 133.096507,18.1447768 132.088264,18.1447768 L121.226795,18.1447768 L121.226795,14.6077156 L132.122636,14.6077156 Z M133.875595,29.3454703 C134.540118,29.3454703 134.872375,29.0333798 134.872375,28.4091894 L134.872375,24.9761595 L126.313813,24.9761595 C125.351399,24.9761595 124.675428,25.1668815 124.28588,25.5483312 C123.896332,25.9297808 123.701561,26.4557111 123.701561,27.1261378 C123.701561,27.7965645 123.896332,28.3340537 124.28588,28.7386216 C124.675428,29.1431894 125.328485,29.3454703 126.245069,29.3454703 L133.875595,29.3454703 Z M145.493242,14.6077156 L151.542667,29.3107932 C151.680155,29.6806838 151.97804,29.8656264 152.436333,29.8656264 C152.917539,29.8656264 153.238339,29.6806838 153.398741,29.3107932 L159.688769,14.6077156 L163.607147,14.6077156 L156.595313,30.9406155 C156.205764,31.8191057 155.673008,32.4375072 154.997027,32.7958388 C154.321046,33.1541703 153.46749,33.3333333 152.436333,33.3333333 C151.382261,33.3333333 150.517247,33.1483908 149.841266,32.7785002 C149.165286,32.4086096 148.655443,31.7959875 148.311724,30.9406155 L141.643607,14.6077156 L145.493242,14.6077156 Z M178.696339,14.6077156 C180.850312,14.6077156 182.408482,15.0989692 183.370896,16.0814911 C184.333309,17.064013 184.814509,18.4453025 184.814509,20.225401 C184.814509,21.9130268 184.344766,23.2134039 183.405267,24.1265713 C182.465769,25.0397387 180.884685,25.4963156 178.661968,25.4963156 L170.034662,25.4963156 L170.034662,26.8140442 C170.034662,27.5538254 170.246619,28.1606681 170.670539,28.6345904 C171.094459,29.1085127 171.81053,29.3454703 172.818772,29.3454703 L183.920843,29.3454703 L183.920843,32.9172085 L172.818772,32.9172085 C171.673042,32.9172085 170.704915,32.7669427 169.914361,32.4664066 C169.123807,32.1658705 168.47075,31.7439704 167.955172,31.2006935 C167.439593,30.6574167 167.067236,30.0216768 166.83809,29.2934547 C166.608944,28.5652326 166.494373,27.7618885 166.494373,26.8833984 L166.494373,20.6415258 C166.494373,19.7861538 166.608944,18.9885892 166.83809,18.248808 C167.067236,17.5090268 167.439593,16.8675074 167.955172,16.3242306 C168.47075,15.7809538 169.123807,15.3590537 169.914361,15.0585176 C170.704915,14.7579814 171.673042,14.6077156 172.818772,14.6077156 L178.696339,14.6077156 Z M170.034662,22.6181188 L178.558853,22.6181188 C179.544181,22.6181188 180.237337,22.4216173 180.638343,22.0286086 C181.039348,21.6355998 181.239848,21.1038901 181.239848,20.4334634 C181.239848,19.7399185 181.03362,19.1850909 180.621157,18.768964 C180.208694,18.3528371 179.555637,18.1447768 178.661968,18.1447768 L172.818772,18.1447768 C171.81053,18.1447768 171.094459,18.3875138 170.670539,18.8729952 C170.246619,19.3584766 170.034662,19.9595398 170.034662,20.6762029 L170.034662,22.6181188 Z M47.3549469,18.4684294 L58.3036025,18.4684294 L58.3036025,22.2251118 L47.1576154,22.2251118 C47.270245,24.3966408 47.7660847,26.0014057 48.6451444,27.0394452 C49.6533871,28.2300305 51.2917568,28.8253143 53.5603028,28.8253143 L62.5313261,28.8253143 L62.5313261,32.9172085 L53.5603028,32.9172085 C50.1689412,32.9172085 47.573901,31.9520397 45.7751044,30.0216732 C43.9763079,28.0913066 43.0769231,25.1611235 43.0769231,21.231036 C43.0769231,17.2778303 43.9763079,14.3360883 45.7751044,12.4057217 C47.573901,10.4753552 50.1689412,9.51018639 53.5603028,9.51018639 L62.5313261,9.51018639 L62.5313261,13.6020806 L53.5603028,13.6020806 C51.3146714,13.6020806 49.6820303,14.1973644 48.6623303,15.3879497 C48.0312501,16.1247889 47.5954568,17.1516108 47.3549469,18.4684294 Z M204.406399,14.6077156 L204.406399,18.1447768 L194.369851,18.1447768 C193.522011,18.1447768 192.914783,18.3181604 192.548149,18.6649328 C192.181516,19.0117052 191.998202,19.5318561 191.998202,20.225401 C191.998202,20.8727095 192.175787,21.3639631 192.530964,21.6991764 C192.88614,22.0343898 193.567839,22.2019939 194.576082,22.2019939 L198.838177,22.2019939 C200.098481,22.2019939 201.135351,22.3407008 201.948819,22.6181188 C202.762288,22.8955367 203.403887,23.2654218 203.873637,23.727785 C204.343386,24.1901482 204.669914,24.7334169 204.853231,25.3576073 C205.036548,25.9817977 205.128205,26.6522143 205.128205,27.3688773 C205.128205,28.178013 205.019362,28.9235625 204.801674,29.6055483 C204.583985,30.2875341 204.234542,30.871259 203.753336,31.3567404 C203.272129,31.8422218 202.653444,32.2236657 201.897262,32.5010837 C201.14108,32.7785016 200.235967,32.9172085 199.181895,32.9172085 L188.629771,32.9172085 L188.629771,29.3454703 L199.181895,29.3454703 C200.029735,29.3454703 200.636963,29.1894251 201.003597,28.8773299 C201.37023,28.5652347 201.553544,28.0508633 201.553544,27.3342003 C201.553544,26.5944191 201.353045,26.0684888 200.952039,25.7563936 C200.551033,25.4442984 199.892248,25.2882531 198.975664,25.2882531 L194.679197,25.2882531 C193.418894,25.2882531 192.387752,25.1437668 191.585741,24.8547898 C190.78373,24.5658127 190.147859,24.1728099 189.678109,23.6757694 C189.20836,23.1787289 188.881832,22.606563 188.698515,21.9592544 C188.515198,21.3119459 188.423541,20.6415293 188.423541,19.9479844 C188.423541,18.3065949 188.881826,17.0062178 189.79841,16.046814 C190.714995,15.0874103 192.227336,14.6077156 194.33548,14.6077156 L204.406399,14.6077156 Z" id="Combined-Shape" fill="#FFFFFF"></path>
                <path d="M219.439048,9.62775882 L219.439048,24.7803434 C219.439048,25.3300998 219.513494,25.8512152 219.662386,26.3437053 C219.811278,26.8361954 220.068973,27.2599596 220.435477,27.6150106 C220.801981,27.9700616 221.288737,28.2506622 221.89576,28.4568209 C222.502783,28.6629795 223.264413,28.7660573 224.180674,28.7660573 L233.182889,28.7660573 L233.182889,32.8204904 L223.940156,32.8204904 C222.40542,32.8204904 221.094041,32.6200614 220.005982,32.2191973 C218.917922,31.8183333 218.030308,31.2628586 217.343113,30.5527566 C216.655917,29.8426546 216.157708,29.0008528 215.84847,28.0273259 C215.539232,27.0537989 215.384615,25.9829354 215.384615,24.814703 L215.384615,9.62775882 L219.439048,9.62775882 Z M248.404193,14.6786204 C249.526612,14.6786204 250.488672,14.8275105 251.2904,15.1252952 C252.092128,15.4230799 252.75068,15.8411175 253.266077,16.3794207 C253.781474,16.9177238 254.153699,17.5533701 254.382764,18.2863786 C254.611829,19.0193871 254.72636,19.8096501 254.72636,20.6571912 L254.72636,29.1783725 C254.72636,29.8426615 254.674821,30.4038627 254.571742,30.861993 C254.468662,31.3201234 254.279687,31.6923487 254.004808,31.9786801 C253.72993,32.2650116 253.346252,32.4768937 252.853762,32.6143328 C252.361272,32.7517719 251.737078,32.8204904 250.981163,32.8204904 L242.494342,32.8204904 C240.341129,32.8204904 238.789236,32.3280077 237.838615,31.3430275 C236.887995,30.3580473 236.412692,29.0065831 236.412692,27.2885944 C236.412692,26.4639598 236.521496,25.7309623 236.739108,25.0895799 C236.95672,24.4481974 237.306039,23.9041758 237.787076,23.4574987 C238.268113,23.0108217 238.898033,22.6672291 239.676854,22.4267107 C240.455676,22.1861923 241.406282,22.0659349 242.528701,22.0659349 L251.152961,22.0659349 L251.152961,20.6915508 C251.152961,19.9814488 250.941079,19.3858883 250.517309,18.9048514 C250.093538,18.4238146 249.37772,18.1832998 248.369834,18.1832998 L237.512199,18.1832998 L237.512199,14.6786204 L248.404193,14.6786204 Z M250.156533,29.2814513 C250.820822,29.2814513 251.152961,28.972218 251.152961,28.3537421 L251.152961,24.9521414 L242.59742,24.9521414 C241.635347,24.9521414 240.959615,25.1411174 240.570204,25.5190749 C240.180793,25.8970324 239.986091,26.4181478 239.986091,27.0824368 C239.986091,27.7467258 240.180793,28.2792943 240.570204,28.6801583 C240.959615,29.0810223 241.612441,29.2814513 242.528701,29.2814513 L250.156533,29.2814513 Z M263.522418,6.81027143 L263.522418,14.6786204 L271.562565,14.6786204 C273.967749,14.6786204 275.874688,15.4287975 277.283439,16.9291743 C278.69219,18.4295511 279.396554,20.7029887 279.396554,23.7495554 C279.396554,26.8190285 278.69219,29.0981927 277.283439,30.5871162 C275.874688,32.0760398 273.967749,32.8204904 271.562565,32.8204904 L266.546063,32.8204904 C264.347038,32.8204904 262.68634,32.1848441 261.563921,30.9135324 C260.441502,29.6422208 259.8803,27.6894696 259.8803,25.0552203 L259.8803,6.81027143 L263.522418,6.81027143 Z M263.522418,18.1832998 L263.522418,24.8834222 C263.522418,26.4410653 263.831652,27.5634678 264.450127,28.2506633 C265.068603,28.9378588 266.122287,29.2814513 267.611211,29.2814513 L271.18461,29.2814513 C272.765159,29.2814513 273.916194,28.8519606 274.63775,27.9929663 C275.359305,27.1339719 275.720077,25.7195158 275.720077,23.7495554 C275.720077,21.779595 275.359305,20.3594123 274.63775,19.4889647 C273.916194,18.6185171 272.765159,18.1832998 271.18461,18.1832998 L263.522418,18.1832998 Z M298.878449,14.6786204 L298.878449,18.1832998 L288.845445,18.1832998 C287.997904,18.1832998 287.39089,18.3550961 287.024386,18.6986938 C286.657882,19.0422916 286.474633,19.5576805 286.474633,20.2448759 C286.474633,20.8862584 286.652155,21.3730145 287.007206,21.705159 C287.362257,22.0373035 288.043716,22.2033733 289.051603,22.2033733 L293.312193,22.2033733 C294.572052,22.2033733 295.608556,22.3408103 296.421737,22.6156885 C297.234919,22.8905667 297.876292,23.2570654 298.345875,23.7151958 C298.815459,24.1733261 299.141872,24.7116211 299.325124,25.3300971 C299.508376,25.948573 299.600001,26.612852 299.600001,27.322954 C299.600001,28.1246821 299.491196,28.8634061 299.273584,29.5391484 C299.055973,30.2148906 298.706653,30.7932714 298.225617,31.2743083 C297.74458,31.7553451 297.126113,32.133297 296.370198,32.4081751 C295.614283,32.6830533 294.709489,32.8204904 293.655789,32.8204904 L283.107392,32.8204904 L283.107392,29.2814513 L293.655789,29.2814513 C294.503331,29.2814513 295.110344,29.1268347 295.476848,28.8175967 C295.843353,28.5083587 296.026602,27.9986964 296.026602,27.2885944 C296.026602,26.5555859 295.826173,26.0344705 295.425309,25.7252325 C295.024445,25.4159945 294.365892,25.2613779 293.449632,25.2613779 L289.154682,25.2613779 C287.894823,25.2613779 286.864045,25.1182143 286.062317,24.8318828 C285.260589,24.5455514 284.624943,24.1561465 284.155359,23.6636564 C283.685776,23.1711663 283.359363,22.6042385 283.176111,21.962856 C282.992859,21.3214736 282.901234,20.6571946 282.901234,19.9699991 C282.901234,18.3436365 283.359357,17.0551643 284.275618,16.1045439 C285.191879,15.1539234 286.703686,14.6786204 288.811086,14.6786204 L298.878449,14.6786204 Z" id="Labs" fill="#11C1F4"></path>
                <g id="Group-4">
                    <rect id="Rectangle-2" fill="#E3E7EC" transform="translate(20.000000, 4.770008) rotate(45.000000) translate(-20.000000, -4.770008) " x="16.9230769" y="1.69308471" width="6.15384615" height="6.15384615"></rect>
                    <rect id="Rectangle-2-Copy-3" fill="#E3E7EC" transform="translate(14.923336, 9.846672) rotate(45.000000) translate(-14.923336, -9.846672) " x="11.8464129" y="6.76974878" width="6.15384615" height="6.15384615"></rect>
                    <rect id="Rectangle-2-Copy-4" fill="#61666A" transform="translate(20.000000, 14.923336) rotate(45.000000) translate(-20.000000, -14.923336) " x="16.9230769" y="11.8464129" width="6.15384615" height="6.15384615"></rect>
                    <rect id="Rectangle-2-Copy-8" fill="#61666A" transform="translate(9.846672, 14.923336) rotate(45.000000) translate(-9.846672, -14.923336) " x="6.76974878" y="11.8464129" width="6.15384615" height="6.15384615"></rect>
                    <rect id="Rectangle-2-Copy-7" fill="#E3E7EC" transform="translate(14.923336, 20.000000) rotate(45.000000) translate(-14.923336, -20.000000) " x="11.8464129" y="16.9230769" width="6.15384615" height="6.15384615"></rect>
                    <rect id="Rectangle-2-Copy-11" fill="#11C1F4" transform="translate(4.770008, 20.000000) rotate(45.000000) translate(-4.770008, -20.000000) " x="1.69308471" y="16.9230769" width="6.15384615" height="6.15384615"></rect>
                    <rect id="Rectangle-2-Copy-9" fill="#11C1F4" transform="translate(14.923336, 30.153328) rotate(45.000000) translate(-14.923336, -30.153328) " x="11.8464129" y="27.0764051" width="6.15384615" height="6.15384615"></rect>
                    <rect id="Rectangle-2-Copy-17" fill="#C7CFD9" transform="translate(20.000000, 25.076664) rotate(45.000000) translate(-20.000000, -25.076664) " x="16.9230769" y="21.999741" width="6.15384615" height="6.15384615"></rect>
                    <rect id="Rectangle-2-Copy-12" fill="#61666A" transform="translate(20.000000, 35.229992) rotate(45.000000) translate(-20.000000, -35.229992) " x="16.9230769" y="32.1530691" width="6.15384615" height="6.15384615"></rect>
                    <rect id="Rectangle-2-Copy-14" fill="#61666A" transform="translate(30.153328, 25.076664) rotate(45.000000) translate(-30.153328, -25.076664) " x="27.0764051" y="21.999741" width="6.15384615" height="6.15384615"></rect>
                    <rect id="Rectangle-2-Copy-13" fill="#E3E7EC" transform="translate(25.076664, 30.153328) rotate(45.000000) translate(-25.076664, -30.153328) " x="21.999741" y="27.0764051" width="6.15384615" height="6.15384615"></rect>
                </g>
            </g>
        </g>
    </g>
</svg>